<svg width="250" height="62" viewBox="0 0 250 62" fill="none" xmlns="http://www.w3.org/2000/svg">
<path d="M164.064 35.9125C163.361 35.9125 163.06 35.1089 163.864 34.1546C166.425 32.2962 167.48 31.7437 167.58 31.6934C169.288 31.6934 166.124 35.9125 164.064 35.9125ZM248.898 26.6707C248.748 26.5702 248.597 26.4698 248.446 26.3693C248.396 26.3191 248.396 26.3191 248.346 26.2689C247.04 25.415 245.634 25.8168 245.634 25.8168C245.634 25.8168 245.885 26.3191 244.579 27.3739C244.478 27.4241 244.428 27.4743 244.378 27.5748C244.328 27.625 244.328 27.625 244.278 27.6752C239.506 31.593 233.077 34.6568 226.397 35.9628C228.556 34.7071 233.68 29.8853 230.113 27.2734C228.054 25.7666 224.387 26.4196 220.922 28.1775C221.324 27.5246 222.278 26.1684 221.876 24.5109C221.474 22.8534 218.31 22.3512 216.552 23.0041C216.502 24.7118 216.2 25.6159 215.899 26.0177C208.114 32.8487 197.968 36.465 197.164 35.6614C196.511 35.0084 198.772 32.3464 199.525 31.2414C200.178 30.3373 200.178 29.2825 199.726 28.4789C199.023 27.2232 197.717 27.1227 195.306 27.6752C191.991 28.2277 189.63 27.0725 187.621 24.0087C186.667 22.5018 184.256 22.8032 183.05 23.6571C183.352 24.6114 183.251 25.5657 183 26.5702C180.941 31.2916 174.813 31.3418 172.452 29.7346C172.101 28.73 171.247 26.9218 169.489 26.6707C164.064 25.8168 162.156 29.1821 161.302 30.1866C159.393 32.3966 146.284 38.1225 143.22 35.6112C140.96 33.803 142.869 27.1227 147.138 20.4927C153.517 10.4473 156.38 10.5477 157.434 11.5523C158.087 12.2052 158.69 13.5614 157.384 16.0225C157.284 16.2234 157.183 16.3741 157.133 16.5248C154.923 20.1411 154.069 19.9402 154.069 19.9402C153.366 22.1 154.27 23.3055 154.973 23.858C155.727 24.5612 156.781 24.31 157.083 24.2096C158.138 23.858 158.841 22.9037 159.444 21.9493C162.507 17.1777 164.466 9.59341 159.393 6.8309C155.777 4.87204 149.699 7.53408 142.969 18.4334C136.992 28.1273 135.284 35.7116 139.604 39.328C144.827 43.6978 155.877 37.9216 159.494 36.2641C159.393 37.0175 159.695 40.6841 163.311 40.4832C167.982 40.2321 170.845 36.2139 172.101 34.1546C173.909 35.2093 181.895 36.7162 186.717 29.4834C187.219 29.9355 190.132 32.045 194 32.045C192.644 34.5564 190.886 37.57 193.447 39.6294C197.114 42.5425 209.621 35.5609 213.287 33.4012C211.228 37.1682 207.612 45.7069 203.945 53.241C202.438 56.3551 200.379 60.5239 202.539 61.6289C204.246 62.4828 206.808 61.5787 207.21 59.3687C207.712 56.4555 210.525 48.2685 212.534 43.8484C216.351 35.36 219.767 30.9903 225.593 30.9903C225.241 31.6934 225.141 32.2459 223.182 34.1546C221.072 36.2641 218.712 36.1134 218.862 38.3737C218.913 39.7298 220.319 40.0814 220.671 40.1819C223.684 40.9855 232.072 38.5244 235.387 37.3189C239.205 35.9125 244.428 33.3509 248.245 30.94C250.204 29.6341 250.355 27.9264 248.898 26.6707ZM118.157 18.1321C114.942 18.3832 111.024 19.438 109.618 22.6525C108.413 25.3146 109.367 28.1273 111.878 31.2916C113.486 33.2505 114.942 34.908 115.394 35.36C114.239 35.6112 111.728 35.5107 109.166 35.0587C109.166 35.0587 109.166 35.0587 109.116 35.0587C108.513 34.9582 107.961 34.8075 107.408 34.6568C106.002 34.2048 105.6 33.6523 105.6 33.6523C104.646 33.803 103.842 34.4559 103.239 35.2094C102.687 35.9628 102.084 37.3691 102.586 38.0723C102.988 38.675 103.842 38.9764 105.449 39.0266C107.91 39.1271 114.591 40.0312 117.052 40.2823C118.96 40.4832 120.216 39.1271 120.618 38.223C121.12 37.0175 120.618 35.6614 119.965 34.9582C116.801 31.2916 112.381 27.3237 113.988 23.9584C114.741 22.4516 118.307 22.753 119.463 23.1046C121.974 23.858 123.23 22.9539 123.782 21.2461C124.134 20.2416 123.481 17.7302 118.157 18.1321ZM52.9114 22.3512C53.3634 22.8032 52.4091 23.8077 51.5552 24.3602C49.2448 25.8671 46.8841 26.7209 45.2266 27.3739C47.0348 23.6571 52.2584 21.4471 52.9114 22.3512ZM106.705 30.4378C107.961 29.7346 108.463 28.278 107.458 27.0725C106.454 25.8671 104.445 25.9675 103.541 26.52C102.787 26.9721 101.933 27.7255 99.3716 27.8762C96.9607 27.9766 95.9562 26.9721 94.4494 26.9721C92.7416 26.9721 92.0385 28.1775 89.9289 30.7893C88.8239 32.1455 86.413 35.2094 85.308 35.2094C84.3537 35.2094 84.0021 32.4971 84.0021 28.9812C84.0021 27.3739 83.2989 26.068 81.4907 26.2187C79.9839 26.3191 79.7327 28.278 78.9291 29.2323C76.5684 31.9948 74.6598 34.7071 73.6552 34.7071C72.4498 34.7071 71.9977 32.0953 71.9977 30.0862C71.9977 30.0862 72.3493 26.9218 69.4864 26.3693C68.2307 26.1182 66.9248 26.8214 66.9248 26.8214C67.0252 27.0725 67.0755 27.3237 67.0755 27.5748C66.7239 28.9309 64.2125 30.7893 64.2125 30.7893C61.5505 32.7482 56.1761 36.2139 51.3543 36.465C45.7288 36.7664 44.7243 33.803 44.5234 32.4971C49.3954 30.7391 52.61 28.6798 54.7195 27.0725C56.9295 25.3648 58.4364 23.4562 58.2857 21.5977C58.0848 19.0864 55.8245 18.1321 53.9661 18.1321C50.0484 18.1321 43.5188 19.8398 40.4047 28.4287C39.7518 28.6296 38.1445 28.6798 37.2907 28.4287C36.1354 28.1273 36.1856 27.625 36.1856 27.625C35.1309 27.8762 34.6788 28.4287 34.277 29.3327C33.6743 30.7893 34.4779 32.0953 35.6834 32.7482C36.5875 33.2505 37.9436 33.5518 39.9025 33.3007C40.2038 35.9125 41.9116 40.6339 51.1534 40.2823C58.4866 39.9809 67.0755 33.9537 67.8289 33.5016C68.1302 35.0084 69.185 40.3828 72.2991 40.3828C76.0662 40.3828 79.8834 34.8075 79.8834 34.8075C79.8834 34.8075 80.8378 40.433 84.6048 40.433C87.7691 40.433 91.6869 35.5609 92.6914 34.4057C93.495 33.4514 95.1023 31.593 95.9562 31.593C96.81 31.4423 98.4676 32.5975 103.289 31.593C103.44 31.5428 105.6 31.0405 106.705 30.4378ZM46.8841 3.31499C47.2357 2.4109 46.9343 1.35612 46.3818 0.904079C44.5234 -0.452061 42.8659 0.301346 41.6102 1.65749C40.1536 3.26476 38.245 6.73045 37.4413 8.03636C30.0579 19.9402 24.4325 32.698 24.4325 32.698C24.4325 32.698 22.4736 26.7712 22.2225 22.0498C21.9713 17.6298 21.7704 13.3605 21.5695 11.3011C21.5193 10.4473 21.1677 9.19159 19.7111 8.68931C18.6061 8.33772 16.9486 8.18704 15.7934 8.58886C15.6929 9.99522 15.6427 10.6984 15.0399 12.3559C14.4372 14.0134 10.6199 21.4471 10.0172 22.6023C6.7022 28.4789 2.33243 35.8121 2.08129 36.2641C1.1772 37.9216 -0.028259 40.1819 2.08129 40.9353C4.19084 41.7389 6.04925 41.2869 6.95334 39.9307C7.15425 39.6796 7.35516 39.1773 7.35516 39.1773C7.35516 39.1773 6.75243 38.675 8.05834 35.6112C8.46016 34.8075 8.91221 33.8532 9.46471 32.7984C9.56516 32.5975 9.66562 32.4468 9.76607 32.2459C9.91675 31.9446 10.0172 31.6934 10.1177 31.4925C12.2774 27.2232 15.1906 21.6982 17.7522 16.8261C17.7522 19.6389 17.9531 23.1548 18.3549 25.6662C18.9577 30.6387 20.1631 32.698 20.6152 36.6659C20.5147 39.328 20.7659 39.78 22.7247 40.3325C24.5329 40.8348 25.5877 40.3325 26.2909 38.675C28.9027 32.045 36.487 16.8261 42.9161 8.58886C43.6193 7.735 46.1307 5.27386 46.8841 3.31499Z" fill="white"/>
</svg>
