<svg width="501" height="38" viewBox="0 0 501 38" fill="none" xmlns="http://www.w3.org/2000/svg">
<path d="M0.0908813 37.1738L3.12834 32.9035V4.72918L0.0908813 0.459045H11.933L8.89553 4.72918V32.9035L11.933 37.1738H0.0908813Z" fill="white"/>
<path d="M33.3486 37.1296C30.047 31.4949 20.274 16.7034 20.274 16.7034V37.1738H15.9156V10.4082L12.8782 6.18181H19.4373L32.3363 25.772V6.18181H36.7382V37.1296H33.3486Z" fill="white"/>
<path d="M53.5553 37.1738H49.5493L40.3925 8.91133L38.4554 6.18181H45.1469L52.1025 28.0612L58.1779 8.91133L56.2405 6.18181H63.5923L53.5553 37.1738Z" fill="white"/>
<path d="M81.5508 37.1738H66.3629V6.18181H82.3872L80.7149 10.2758H71.6458V19.3006H80.4948L78.7778 23.5708H71.6458V32.6833H83.3563L81.5508 37.1738Z" fill="white"/>
<path d="M92.7306 37.834C89.913 37.834 86.92 37.2617 84.7188 36.1611L86.1275 31.4507C89.2973 34.5322 98.1016 34.4884 98.1016 29.5576C98.1016 22.9542 84.8508 23.6146 84.8508 13.7095C84.8508 8.69099 88.725 5.56544 94.7117 5.56544C97.045 5.56544 99.5104 5.91746 101.579 7.06209L99.9066 11.6844C97.6613 9.04319 90.0017 8.82307 90.0017 13.2253C90.0017 18.9925 103.208 19.5646 103.208 28.1931C103.208 33.6517 99.5544 37.834 92.7306 37.834Z" fill="white"/>
<path d="M116.371 10.2758V37.1738H111.089V10.2758H102.988L104.221 6.18181H122.931L124.339 10.2758H116.371Z" fill="white"/>
<path d="M135.386 9.87947C130.015 9.87947 129.311 17.2313 129.311 21.1052C129.311 24.9791 130.103 33.4756 135.694 33.4756C141.065 33.4756 141.769 26.1238 141.769 22.2499C141.769 18.3757 140.976 9.87947 135.386 9.87947ZM135.386 37.7896C126.713 37.7896 123.852 28.325 123.852 21.2813C123.852 14.1936 127.461 5.56525 135.694 5.56525C144.366 5.56525 147.228 15.0301 147.228 22.0735C147.228 29.1615 143.618 37.7896 135.386 37.7896Z" fill="white"/>
<path d="M160.259 10.2321H157.177V20.3134H160.391C162.944 20.3134 165.145 18.4644 165.145 15.1626C165.145 12.345 163.384 10.2321 160.259 10.2321ZM166.598 37.1738L157.177 23.3068V37.1738H151.894V9.39536L149.605 6.18181H161.095C166.246 6.18181 170.252 9.70377 170.252 14.8984C170.252 19.4767 168.139 23.0867 163.473 23.8792L173.245 37.1738H166.598Z" fill="white"/>
<path d="M173.018 15.8667C173.899 14.2818 174.295 12.4328 174.339 10.8039C172.314 10.628 171.302 9.52742 171.302 7.89851C171.302 6.00564 172.666 4.99308 174.075 4.99308C175.703 4.99308 177.421 6.31381 177.421 9.1312C177.421 11.6406 175.923 14.59 173.018 15.8667Z" fill="white"/>
<path d="M187.497 37.834C184.68 37.834 181.686 37.2617 179.486 36.1611L180.893 31.4507C184.063 34.5322 192.868 34.4884 192.868 29.5576C192.868 22.9542 179.617 23.6146 179.617 13.7095C179.617 8.69099 183.491 5.56544 189.478 5.56544C191.811 5.56544 194.276 5.91746 196.345 7.06209L194.673 11.6844C192.428 9.04319 184.767 8.82307 184.767 13.2253C184.767 18.9925 197.975 19.5646 197.975 28.1931C197.975 33.6517 194.321 37.834 187.497 37.834Z" fill="white"/>
<path d="M222.319 20.2396H217.432V32.4336H221.835C225.973 32.4336 228.218 29.9243 228.218 26.4906C228.218 22.8804 225.886 20.2396 222.319 20.2396ZM221.438 4.39122H217.432V15.7929H220.734C224.52 15.7929 226.81 13.328 226.81 9.49805C226.81 6.85658 225.093 4.39122 221.438 4.39122ZM221.351 36.8799H208.981L211.842 32.8739V4.17109L208.981 0.16534H221.615C229.054 0.16534 232.4 4.52311 232.4 9.1897C232.4 13.8118 230.068 16.6734 227.161 17.5103C230.728 18.3463 233.854 21.9123 233.854 26.3143C233.854 32.9179 229.803 36.8799 221.351 36.8799Z" fill="white"/>
<path d="M248.076 37.3647C241.473 37.3647 237.687 33.2702 237.687 25.3459V8.61792L235.75 5.88823H242.97V25.2585C242.97 30.2328 244.775 32.83 248.296 32.83C251.818 32.83 253.755 30.1885 253.755 25.4786V9.23385L251.378 5.88823H258.466V25.6987C258.466 32.6982 255.032 37.3647 248.076 37.3647Z" fill="white"/>
<path d="M269.462 37.5405C266.645 37.5405 263.651 36.9682 261.45 35.8676L262.858 31.1572C266.028 34.2387 274.833 34.1949 274.833 29.2642C274.833 22.6605 261.582 23.3209 261.582 13.4161C261.582 8.39771 265.456 5.27198 271.443 5.27198C273.775 5.27198 276.241 5.624 278.31 6.76863L276.637 11.3907C274.392 8.74973 266.733 8.52961 266.733 12.9316C266.733 18.699 279.939 19.2711 279.939 27.8999C279.939 33.3582 276.285 37.5405 269.462 37.5405Z" fill="white"/>
<path d="M284.033 36.8799V8.88106L281.877 5.88787H289.316V36.8799H284.033Z" fill="white"/>
<path d="M312.692 36.8356C309.391 31.201 299.617 16.4097 299.617 16.4097V36.8799H295.259V10.114L292.221 5.88787H298.781L311.68 25.4783V5.88787H316.083V36.8356H312.692Z" fill="white"/>
<path d="M336.905 36.8799H321.717V7.60482L320.485 5.88787H337.742L336.068 9.98167H327V19.0067H335.848L334.132 23.277H327V32.3894H338.71L336.905 36.8799Z" fill="white"/>
<path d="M348.084 37.5405C345.267 37.5405 342.274 36.9682 340.073 35.8676L341.481 31.1572C344.651 34.2387 353.456 34.1949 353.456 29.2642C353.456 22.6605 340.204 23.3209 340.204 13.4161C340.204 8.39771 344.078 5.27198 350.065 5.27198C352.398 5.27198 354.864 5.624 356.933 6.76863L355.26 11.3907C353.015 8.74973 345.356 8.52961 345.356 12.9316C345.356 18.699 358.562 19.2711 358.562 27.8999C358.562 33.3582 354.908 37.5405 348.084 37.5405Z" fill="white"/>
<path d="M367.366 37.5405C364.548 37.5405 361.556 36.9682 359.355 35.8676L360.763 31.1572C363.933 34.2387 372.736 34.1949 372.736 29.2642C372.736 22.6605 359.487 23.3209 359.487 13.4161C359.487 8.39771 363.361 5.27198 369.348 5.27198C371.681 5.27198 374.146 5.624 376.215 6.76863L374.542 11.3907C372.296 8.74973 364.637 8.52961 364.637 12.9316C364.637 18.699 377.844 19.2711 377.844 27.8999C377.844 33.3582 374.19 37.5405 367.366 37.5405Z" fill="white"/>
<path d="M398.286 5.40374H395.424V33.27H398.77C404.801 33.27 408.322 29.0877 408.322 19.1827C408.322 10.2904 405.197 5.40374 398.286 5.40374ZM399.253 37.7607H386.796L389.569 33.6224V5.13977L386.796 1.04597H398.682C409.379 1.04597 414.397 7.82508 414.397 18.6546C414.397 31.1131 409.159 37.7607 399.253 37.7607Z" fill="white"/>
<path d="M426.99 14.869L423.511 25.9186H430.335L426.99 14.869ZM433.726 37.7607L431.392 29.8808H422.499L420.166 37.7607H414.708L424.745 9.67387L423.645 6.7685H429.94L439.757 37.7607H433.726Z" fill="white"/>
<path d="M443.147 37.7607V9.76168L440.989 6.7685H448.43V37.7607H443.147Z" fill="white"/>
<path d="M468.151 37.7607H453.623V8.26532L452.524 6.7685H458.951V33.27H469.868L468.151 37.7607Z" fill="white"/>
<path d="M479.9 24.774V37.7607H474.617V24.8616L466.209 9.32144L464.359 6.7685H470.83L477.742 20.1074L483.465 9.23363L481.659 6.7685H489.716L479.9 24.774Z" fill="white"/>
<path d="M495.727 8.14635V6.77496H496.834C497.311 6.77496 497.803 6.85063 497.803 7.45253C497.803 8.23786 496.999 8.14635 496.449 8.14635H495.727ZM497.099 8.52332C497.785 8.50453 498.313 8.21973 498.313 7.46168C498.313 6.82239 497.968 6.44067 496.942 6.44067H495.253V10.305H495.727V8.52332H496.595L497.701 10.305H498.268L497.099 8.52332ZM496.633 11.8394C498.545 11.8394 500.09 10.2878 500.09 8.36559C500.09 6.46427 498.545 4.91103 496.633 4.91103C494.713 4.91103 493.159 6.46427 493.159 8.36559C493.159 10.2878 494.713 11.8394 496.633 11.8394ZM496.633 11.3826C494.941 11.3826 493.709 10.0695 493.709 8.36559C493.709 6.6828 494.941 5.3687 496.633 5.3687C498.315 5.3687 499.541 6.6828 499.541 8.36559C499.541 10.0695 498.315 11.3826 496.633 11.3826Z" fill="white"/>
</svg>
