<svg
            xmlns="http://www.w3.org/2000/svg"
            width="425"
            height="420"
            fill="none"
            viewBox="0 0 425 420"
            className="chartImg"
          >
            <g clipPath="url(#clip0_0_5782)">
              <path
                fill="url(#paint0_linear_0_5782)"
                d="M352.986 49.47l-1.993 1.985h-25.596l-2.796-2.785H271.27l2.796-2.784h34.213l2.648-2.637h20.691l4.641 4.621h54.261V3.582H132.735v-1.6h259.392V49.47h-39.141zM83.874 5.567l-2.648 2.636H60.535l-4.642-4.62H1.632V47.87h257.785v1.6H.025V1.982h39.14L41.16 0h25.596l2.796 2.783h51.332l-2.796 2.785H83.874z"
              ></path>
              <path
                fill="#2E18EE"
                fillRule="evenodd"
                d="M5.771 18.364V7.47h10.921L5.771 18.364z"
                clipRule="evenodd"
              ></path>
              <path
                fill="#fff"
                d="M15.123 33.959c-.354 0-.682-.086-.982-.258a1.945 1.945 0 01-.693-.692 1.946 1.946 0 01-.257-.982v-.45h1.304v.45c0 .172.059.322.177.45.129.119.279.178.45.178h7.729a.59.59 0 00.434-.177.618.618 0 00.194-.451v-2.592a.567.567 0 00-.194-.435.59.59 0 00-.434-.177h-7.728c-.354 0-.682-.086-.982-.258a2.082 2.082 0 01-.693-.708 1.86 1.86 0 01-.257-.966V24.3c0-.354.086-.676.257-.966.172-.3.403-.537.693-.708.3-.172.627-.258.982-.258h7.728c.354 0 .676.086.966.258.3.171.536.407.708.708.172.29.258.612.258.966v.45h-1.304v-.45a.567.567 0 00-.194-.435.567.567 0 00-.434-.193h-7.728a.618.618 0 00-.451.193.591.591 0 00-.177.435v2.592c0 .172.059.317.177.435.129.118.279.177.45.177h7.729c.354 0 .676.091.966.274.3.171.536.402.708.692.172.29.258.612.258.966v2.592c0 .354-.086.682-.258.982-.172.29-.408.52-.708.692a1.86 1.86 0 01-.966.258h-7.728zm11.354 0V21.562h1.32v7.068h2.577l3.67-4.009h1.74v.016l-4.235 4.653 4.218 4.653v.016h-1.723l-3.67-4.009h-2.576v4.009h-1.32zm10.377 0v-9.338h1.32v9.338h-1.32zm0-11.077v-1.32h1.32v1.32h-1.32zM42.15 33.96c-.355 0-.682-.086-.982-.258a2.233 2.233 0 01-.709-.708 1.946 1.946 0 01-.257-.982V21.562h1.32v10.449c0 .172.059.322.177.45.129.119.279.178.45.178h1.578v1.32h-1.577zm4.858 0c-.354 0-.681-.086-.982-.258a2.233 2.233 0 01-.709-.708 1.946 1.946 0 01-.257-.982V21.562h1.32v10.449c0 .172.06.322.177.45.129.119.28.178.451.178h1.578v1.32h-1.578zm4.794 0c-.354 0-.682-.086-.982-.258a2.233 2.233 0 01-.709-.708 1.946 1.946 0 01-.257-.982v-.129h1.32v.129c0 .172.06.322.177.45.129.119.28.178.45.178h5.604a.59.59 0 00.434-.177.618.618 0 00.194-.451v-1.433a.567.567 0 00-.194-.435.567.567 0 00-.434-.193h-5.603c-.354 0-.682-.086-.982-.258a2.233 2.233 0 01-.709-.708 1.946 1.946 0 01-.257-.982v-1.433c0-.354.086-.676.257-.966.183-.3.419-.537.709-.708.3-.183.628-.274.982-.274h5.603c.365 0 .692.091.982.274.3.171.537.408.708.708.183.29.274.612.274.966v.129h-1.336v-.129a.567.567 0 00-.194-.435.567.567 0 00-.434-.193h-5.603a.618.618 0 00-.45.193.591.591 0 00-.178.435v1.433c0 .172.06.322.177.45.129.119.28.178.45.178h5.604c.365 0 .692.091.982.274.3.171.537.407.708.708.183.29.274.612.274.966v1.433c0 .354-.091.681-.274.982-.171.29-.408.526-.708.708a1.89 1.89 0 01-.982.258h-5.603zm13.653 0V22.367h9.16c.355 0 .677.086.967.258.3.171.536.407.708.708.172.29.258.612.258.966v2.463c0 .15-.022.3-.065.451-.032.14-.08.274-.144.403.236.354.413.66.53.917.119.258.178.52.178.79v2.704c0 .354-.086.682-.258.982-.172.29-.408.52-.708.692a1.86 1.86 0 01-.966.258h-9.66zm1.932-1.304h7.728a.591.591 0 00.435-.177.618.618 0 00.193-.451v-2.705a.567.567 0 00-.193-.434.567.567 0 00-.435-.194h-7.728a.618.618 0 00-.45.194.591.591 0 00-.178.434v2.705c0 .172.059.322.177.45a.646.646 0 00.45.178zm0-5.265h7.229a.591.591 0 00.434-.177.647.647 0 00.178-.45v-2.464a.591.591 0 00-.177-.435.567.567 0 00-.435-.193h-7.23a.618.618 0 00-.45.193.591.591 0 00-.177.435v2.463c0 .172.059.322.177.451a.646.646 0 00.45.177zm11.35 6.569v-7.39c0-.354.087-.676.258-.966.183-.3.42-.537.709-.708.3-.183.628-.274.982-.274h5.249v1.32h-5.249a.618.618 0 00-.45.193.591.591 0 00-.178.435v7.39h-1.32zm10.171 0c-.354 0-.681-.086-.982-.258a2.233 2.233 0 01-.708-.708 1.946 1.946 0 01-.258-.982v-5.442c0-.354.086-.676.258-.966.183-.3.419-.537.708-.708.301-.183.628-.274.982-.274h5.603c.365 0 .693.091.982.274.301.171.537.408.709.708.182.29.273.612.273.966v3.381h-8.194v2.06c0 .173.059.323.177.452.129.118.279.177.45.177h7.567v1.32H88.91zm-.627-5.33h6.858v-2.06a.567.567 0 00-.193-.435.567.567 0 00-.435-.193H88.91a.618.618 0 00-.45.193.591.591 0 00-.177.435v2.06zm11.791 5.33c-.354 0-.682-.086-.982-.258a2.233 2.233 0 01-.709-.708 1.946 1.946 0 01-.257-.982V28.63h8.179v-2.06a.567.567 0 00-.194-.436.565.565 0 00-.434-.193h-7.551v-1.32h7.551c.365 0 .692.091.982.274.3.171.537.408.708.708.183.29.274.612.274.966v7.39h-7.567zm0-1.32h6.231V29.95h-6.859v2.06c0 .173.06.323.177.452.129.118.28.177.451.177zm9.263 1.32V21.562h1.32v7.068h2.576l3.671-4.009h1.739v.016l-4.235 4.653 4.219 4.653v.016h-1.723l-3.671-4.009h-2.576v4.009h-1.32zm11.873 0c-.365 0-.697-.086-.998-.258a2.225 2.225 0 01-.708-.708 1.943 1.943 0 01-.258-.982v-5.442c0-.354.086-.676.258-.966.182-.3.418-.537.708-.708.301-.183.633-.274.998-.274h6.231v-3.059h1.32v12.397h-7.551zm0-1.32h5.603a.591.591 0 00.435-.177.617.617 0 00.193-.451v-5.442a.566.566 0 00-.193-.435.567.567 0 00-.435-.193h-5.603a.616.616 0 00-.45.193.591.591 0 00-.177.435v5.442c0 .172.059.322.177.45a.644.644 0 00.45.178zm10.812 1.32c-.354 0-.682-.086-.982-.258a2.225 2.225 0 01-.708-.708 1.943 1.943 0 01-.258-.982v-5.442c0-.354.086-.676.258-.966.182-.3.418-.537.708-.708.3-.183.628-.274.982-.274h5.603c.365 0 .692.091.982.274.3.171.537.408.708.708.183.29.274.612.274.966v5.442c0 .354-.091.681-.274.982-.171.29-.408.526-.708.708a1.89 1.89 0 01-.982.258h-5.603zm0-1.32h5.603a.593.593 0 00.435-.177.62.62 0 00.193-.451v-5.442a.57.57 0 00-.193-.435.568.568 0 00-.435-.193h-5.603a.618.618 0 00-.451.193.591.591 0 00-.177.435v5.442c0 .172.059.322.177.45a.646.646 0 00.451.178zm12.047 1.32l-3.671-9.338h1.417l2.833 6.955 3.011-6.955h1.739l3.204 6.94 2.64-6.94h1.433l-3.526 9.338h-1.143l-3.478-7.712-3.3 7.712h-1.159zm13.882 0v-9.338h7.567c.355 0 .677.091.966.274.301.171.537.408.709.708.182.29.273.612.273.966v7.39h-1.32v-7.39a.566.566 0 00-.193-.435.567.567 0 00-.435-.193h-5.602a.618.618 0 00-.451.193.566.566 0 00-.193.435v7.39h-1.321z"
              ></path>
              <path
                fill="#192640"
                fillRule="evenodd"
                d="M203.938 112.388l129.937 94.182-49.631 152.387H123.632L74 206.57l129.938-94.182z"
                clipRule="evenodd"
              ></path>
              <path
                fill="#131D30"
                fillRule="evenodd"
                d="M203.5 157.78l88.375 64.078-33.756 103.679H148.881l-33.756-103.679L203.5 157.78z"
                clipRule="evenodd"
              ></path>
              <path
                fill="#0F0829"
                fillRule="evenodd"
                d="M203.5 192.012l52.312 37.926-19.981 60.47h-64.662l-19.982-60.47 52.313-37.926z"
                clipRule="evenodd"
              ></path>
              <g
                clipRule="evenodd"
                filter="url(#filter0_d_0_5782)"
                shapeRendering="crispEdges"
              >
                <path
                  fill="#2E18EE"
                  fillOpacity="0.259"
                  fillRule="evenodd"
                  d="M203.5 122.209l93 100.76-18 127.197H131l-30-137.672 102.5-90.285z"
                ></path>
                <path
                  stroke="#2E18EE"
                  strokeWidth="2"
                  d="M203.5 122.209l93 100.76-18 127.197H131l-30-137.672 102.5-90.285z"
                ></path>
              </g>
              <g
                clipRule="evenodd"
                filter="url(#filter1_d_0_5782)"
                shapeRendering="crispEdges"
              >
                <path
                  fill="#4B3BDB"
                  fillOpacity="0.259"
                  fillRule="evenodd"
                  d="M203.5 122.209l93 100.76-18 127.197H131l-30-137.672 102.5-90.285z"
                ></path>
                <path
                  stroke="#2E18EE"
                  strokeWidth="2"
                  d="M203.5 122.209l93 100.76-18 127.197H131l-30-137.672 102.5-90.285z"
                ></path>
              </g>
              <path
                fill="#fff"
                d="M283.95 34V22.408h9.161c.354 0 .676.086.966.258.3.171.536.407.708.708.172.29.258.612.258.966v2.463c0 .15-.022.3-.065.451-.032.14-.08.274-.144.403.236.354.413.66.531.917.118.258.177.52.177.79v2.704c0 .354-.086.682-.258.982-.171.29-.408.52-.708.692a1.86 1.86 0 01-.966.258h-9.66zm1.932-1.304h7.728a.591.591 0 00.435-.177.62.62 0 00.193-.451v-2.705a.57.57 0 00-.193-.434.567.567 0 00-.435-.194h-7.728a.618.618 0 00-.451.194.591.591 0 00-.177.434v2.705c0 .172.059.322.177.45a.646.646 0 00.451.178zm0-5.265h7.229a.593.593 0 00.435-.177.646.646 0 00.177-.45V24.34a.591.591 0 00-.177-.435.568.568 0 00-.435-.193h-7.229a.618.618 0 00-.451.193.591.591 0 00-.177.435v2.463c0 .172.059.322.177.451a.646.646 0 00.451.177zm12.913 10.272v-1.336h5.828a.568.568 0 00.435-.194.57.57 0 00.193-.434V34h-6.231c-.354 0-.682-.086-.982-.258a2.225 2.225 0 01-.708-.708 1.943 1.943 0 01-.258-.982v-7.358h1.32v7.358c0 .172.059.322.177.45a.646.646 0 00.451.178h5.603a.593.593 0 00.435-.177.62.62 0 00.193-.451v-7.358h1.32V35.74c0 .365-.086.692-.258.982-.171.3-.408.537-.708.708-.29.183-.617.274-.982.274h-5.828zM312.738 34V22.408h10.577v1.304h-9.273v3.832h7.454v1.32h-7.454V34h-1.304zm13.47 0c-.354 0-.682-.086-.982-.258a2.238 2.238 0 01-.709-.708 1.952 1.952 0 01-.257-.982V26.61c0-.354.086-.676.257-.966.183-.3.419-.537.709-.708.3-.183.628-.274.982-.274h5.603c.365 0 .692.091.982.274.3.171.536.408.708.708.183.29.274.612.274.966v5.442c0 .354-.091.681-.274.982a2.04 2.04 0 01-.708.708 1.89 1.89 0 01-.982.258h-5.603zm0-1.32h5.603a.59.59 0 00.434-.177.618.618 0 00.194-.451V26.61a.567.567 0 00-.194-.435.566.566 0 00-.434-.193h-5.603a.618.618 0 00-.451.193.591.591 0 00-.177.435v5.442c0 .172.059.322.177.45a.646.646 0 00.451.178zM337.355 34c-.354 0-.681-.086-.982-.258a2.225 2.225 0 01-.708-.708 1.943 1.943 0 01-.258-.982V26.61c0-.354.086-.676.258-.966.182-.3.418-.537.708-.708.301-.183.628-.274.982-.274h7.535v1.32h-7.535a.62.62 0 00-.451.193.591.591 0 00-.177.435v5.442c0 .172.059.322.177.45.129.119.28.178.451.178h7.567V34h-7.567zm10.913 0c-.355 0-.682-.086-.983-.258a2.235 2.235 0 01-.708-.708 1.943 1.943 0 01-.258-.982v-7.39h1.321v7.39c0 .172.059.322.177.45a.646.646 0 00.451.178h5.602a.646.646 0 00.451-.177.617.617 0 00.193-.451v-7.39h1.321v7.39c0 .354-.092.681-.274.982-.172.29-.408.526-.709.708a1.887 1.887 0 01-.982.258h-5.602zm10.878 0c-.354 0-.682-.086-.982-.258a2.238 2.238 0 01-.709-.708 1.942 1.942 0 01-.257-.982v-.129h1.32v.129c0 .172.059.322.177.45a.646.646 0 00.451.178h5.603a.59.59 0 00.434-.177.617.617 0 00.193-.451v-1.433a.566.566 0 00-.193-.435.566.566 0 00-.434-.193h-5.603c-.354 0-.682-.086-.982-.258a2.238 2.238 0 01-.709-.708 1.942 1.942 0 01-.257-.982V26.61c0-.354.085-.676.257-.966.183-.3.419-.537.709-.708.3-.183.628-.274.982-.274h5.603c.364 0 .692.091.982.274.3.171.536.408.708.708.182.29.274.612.274.966v.129h-1.337v-.129a.566.566 0 00-.193-.435.566.566 0 00-.434-.193h-5.603a.618.618 0 00-.451.193.591.591 0 00-.177.435v1.433c0 .172.059.322.177.45a.646.646 0 00.451.178h5.603c.364 0 .692.091.982.274.3.171.536.407.708.708.182.29.274.612.274.966v1.433c0 .354-.092.681-.274.982a2.04 2.04 0 01-.708.708c-.29.172-.618.258-.982.258h-5.603z"
              ></path>
              <path
                fill="#9FA5CC"
                d="M163.424 95.401l-5.004-8.64h1.14l4.428 7.692 4.416-7.691h1.14l-4.992 8.64h-1.128zm7.235 0v-6.96h.984v6.96h-.984zm0-8.255v-.984h.984v.984h-.984zm3.9 8.255a1.45 1.45 0 01-.732-.192 1.664 1.664 0 01-.528-.528 1.45 1.45 0 01-.192-.732v-.096h.984v.096c0 .128.044.24.132.336a.482.482 0 00.336.132h4.176a.44.44 0 00.324-.132.46.46 0 00.144-.336v-1.067a.423.423 0 00-.144-.325.423.423 0 00-.324-.144h-4.176a1.45 1.45 0 01-.732-.191 1.664 1.664 0 01-.528-.528 1.45 1.45 0 01-.192-.733v-1.067c0-.264.064-.504.192-.72.136-.224.312-.4.528-.528.224-.136.468-.204.732-.204h4.176c.272 0 .516.068.732.204.224.128.4.304.528.528.136.216.204.456.204.72v.096h-.996v-.096a.423.423 0 00-.144-.324.423.423 0 00-.324-.144h-4.176a.46.46 0 00-.336.144.44.44 0 00-.132.324v1.067c0 .129.044.24.132.337a.482.482 0 00.336.132h4.176c.272 0 .516.067.732.203.224.129.4.305.528.529.136.215.204.456.204.72v1.067c0 .264-.068.508-.204.732a1.517 1.517 0 01-.528.528c-.216.128-.46.192-.732.192h-4.176zm8.052 0a1.45 1.45 0 01-.732-.192 1.664 1.664 0 01-.528-.528 1.45 1.45 0 01-.192-.732v-5.507h.984v5.507c0 .128.044.24.132.336a.482.482 0 00.336.132h4.175c.128 0 .24-.044.336-.132a.46.46 0 00.144-.336v-5.507h.984v5.507c0 .264-.068.508-.204.732a1.517 1.517 0 01-.528.528c-.216.128-.46.192-.732.192h-4.175zm8.331 0a1.45 1.45 0 01-.732-.192 1.664 1.664 0 01-.528-.528 1.45 1.45 0 01-.192-.732v-2.52h6.096v-1.535a.423.423 0 00-.144-.324.423.423 0 00-.324-.144h-5.628v-.984h5.628c.272 0 .516.068.732.204.224.128.4.304.528.528.136.216.204.456.204.72V95.4h-5.64zm0-.984h4.644v-2.004h-5.112v1.536c0 .128.044.24.132.336a.482.482 0 00.336.132zm8.215.984a1.45 1.45 0 01-.732-.192 1.664 1.664 0 01-.528-.528 1.45 1.45 0 01-.192-.732v-7.787h.984v7.787c0 .128.044.24.132.336a.482.482 0 00.336.132h1.176v.984h-1.176zm5.51 0v-8.64h7.2c.264 0 .504.065.72.193.224.128.4.304.528.528.128.216.192.456.192.72v5.76c0 .263-.064.507-.192.731a1.421 1.421 0 01-.528.516 1.386 1.386 0 01-.72.192h-7.2zm1.44-.972h5.76a.44.44 0 00.324-.132.46.46 0 00.144-.336v-5.76a.423.423 0 00-.144-.323.423.423 0 00-.324-.144h-5.76a.46.46 0 00-.336.144.44.44 0 00-.132.324v5.76c0 .127.044.24.132.335a.482.482 0 00.336.132zm9.936.972a1.45 1.45 0 01-.732-.192 1.664 1.664 0 01-.528-.528 1.45 1.45 0 01-.192-.732v-4.055c0-.264.064-.504.192-.72.136-.224.312-.4.528-.528.224-.136.468-.204.732-.204h4.175c.272 0 .516.068.732.204.224.128.4.304.528.528.136.216.204.456.204.72v2.52h-6.107v1.535c0 .128.044.24.132.336a.482.482 0 00.336.132h5.639v.984h-5.639zm-.468-3.971h5.111v-1.536a.423.423 0 00-.144-.324.423.423 0 00-.324-.144h-4.175a.46.46 0 00-.336.144.44.44 0 00-.132.324v1.535zm8.74 3.971a1.45 1.45 0 01-.732-.192 1.664 1.664 0 01-.528-.528 1.45 1.45 0 01-.192-.732v-.096h.984v.096c0 .128.044.24.132.336a.482.482 0 00.336.132h4.176a.44.44 0 00.324-.132.46.46 0 00.144-.336v-1.067a.423.423 0 00-.144-.325.423.423 0 00-.324-.144h-4.176a1.45 1.45 0 01-.732-.191 1.664 1.664 0 01-.528-.528 1.45 1.45 0 01-.192-.733v-1.067c0-.264.064-.504.192-.72.136-.224.312-.4.528-.528.224-.136.468-.204.732-.204h4.176c.272 0 .516.068.732.204.224.128.4.304.528.528.136.216.204.456.204.72v.096h-.996v-.096a.423.423 0 00-.144-.324.423.423 0 00-.324-.144h-4.176a.46.46 0 00-.336.144.44.44 0 00-.132.324v1.067c0 .129.044.24.132.337a.482.482 0 00.336.132h4.176c.272 0 .516.067.732.203.224.129.4.305.528.529.136.215.204.456.204.72v1.067c0 .264-.068.508-.204.732a1.517 1.517 0 01-.528.528c-.216.128-.46.192-.732.192h-4.176zm6.822 0v-6.96h.984v6.96h-.984zm0-8.255v-.984h.984v.984h-.984zm3.648 11.003v-.996h4.344a.423.423 0 00.324-.144.423.423 0 00.144-.324v-1.284h-4.644a1.45 1.45 0 01-.732-.192 1.664 1.664 0 01-.528-.528 1.45 1.45 0 01-.192-.732v-4.055c0-.264.064-.504.192-.72.136-.224.312-.4.528-.528.224-.136.468-.204.732-.204h4.176c.272 0 .516.068.732.204.224.128.4.304.528.528.128.216.192.456.192.72v6.791c0 .272-.064.516-.192.732-.128.224-.304.4-.528.528-.216.136-.46.204-.732.204h-4.344zm.168-3.732h4.176a.44.44 0 00.324-.132.46.46 0 00.144-.336v-4.055a.423.423 0 00-.144-.324.423.423 0 00-.324-.144h-4.176a.46.46 0 00-.336.144.44.44 0 00-.132.324v4.055c0 .128.044.24.132.336a.482.482 0 00.336.132zm6.895.984v-6.96h5.64c.264 0 .504.069.72.205.224.128.4.304.528.528.136.216.204.456.204.72V95.4h-.984v-5.507a.423.423 0 00-.144-.324.423.423 0 00-.324-.144h-4.176a.46.46 0 00-.336.144.423.423 0 00-.144.324V95.4h-.984zM10.316 204.142l-2.82-3.36h1.272l2.832 3.348v.012h-1.284zm-7.296 0v-8.628h7.2c.264 0 .504.068.72.204.224.128.4.3.528.516.128.216.192.456.192.72v2.532c0 .264-.064.504-.192.72a1.516 1.516 0 01-.528.528 1.386 1.386 0 01-.72.192H3.992v3.216H3.02zm1.44-4.2h5.76a.44.44 0 00.324-.132.423.423 0 00.144-.324v-2.532a.423.423 0 00-.144-.324.423.423 0 00-.324-.144H4.46a.46.46 0 00-.336.144.44.44 0 00-.132.324v2.532a.44.44 0 00.132.324.482.482 0 00.336.132zm9.854 4.2a1.45 1.45 0 01-.732-.192 1.664 1.664 0 01-.528-.528 1.45 1.45 0 01-.192-.732v-4.056c0-.264.064-.504.192-.72.136-.224.312-.4.528-.528.224-.136.468-.204.732-.204h4.176c.272 0 .516.068.732.204.224.128.4.304.528.528.136.216.204.456.204.72v2.52h-6.108v1.536c0 .128.044.24.132.336a.482.482 0 00.336.132h5.64v.984h-5.64zm-.468-3.972h5.112v-1.536a.423.423 0 00-.144-.324.422.422 0 00-.324-.144h-4.176a.46.46 0 00-.336.144.44.44 0 00-.132.324v1.536zm8.74 3.972a1.45 1.45 0 01-.732-.192 1.664 1.664 0 01-.528-.528 1.451 1.451 0 01-.192-.732v-.096h.984v.096c0 .128.044.24.132.336a.482.482 0 00.336.132h4.176a.44.44 0 00.324-.132.46.46 0 00.144-.336v-1.068a.423.423 0 00-.144-.324.423.423 0 00-.324-.144h-4.176a1.45 1.45 0 01-.732-.192 1.664 1.664 0 01-.528-.528 1.451 1.451 0 01-.192-.732v-1.068c0-.264.064-.504.192-.72.136-.224.312-.4.528-.528.224-.136.468-.204.732-.204h4.176c.272 0 .516.068.732.204.224.128.4.304.528.528.136.216.204.456.204.72v.096h-.996v-.096a.423.423 0 00-.144-.324.423.423 0 00-.324-.144h-4.176a.46.46 0 00-.336.144.44.44 0 00-.132.324v1.068c0 .128.044.24.132.336a.482.482 0 00.336.132h4.176c.272 0 .516.068.732.204.224.128.4.304.528.528.136.216.204.456.204.72v1.068c0 .264-.068.508-.204.732a1.517 1.517 0 01-.528.528c-.216.128-.46.192-.732.192h-4.176zm8.087 0a1.45 1.45 0 01-.732-.192 1.665 1.665 0 01-.528-.528 1.45 1.45 0 01-.192-.732v-4.056c0-.264.064-.504.192-.72.136-.224.312-.4.528-.528.224-.136.468-.204.732-.204h4.176c.272 0 .516.068.732.204.224.128.4.304.528.528.136.216.204.456.204.72v2.52h-6.108v1.536c0 .128.044.24.132.336a.482.482 0 00.336.132h5.64v.984h-5.64zm-.468-3.972h5.112v-1.536a.423.423 0 00-.144-.324.423.423 0 00-.324-.144h-4.176a.46.46 0 00-.336.144.44.44 0 00-.132.324v1.536zm8.788 3.972a1.45 1.45 0 01-.732-.192 1.664 1.664 0 01-.528-.528 1.45 1.45 0 01-.192-.732v-2.52h6.096v-1.536a.423.423 0 00-.144-.324.423.423 0 00-.324-.144h-5.628v-.984h5.628c.272 0 .516.068.732.204.224.128.4.304.528.528.136.216.204.456.204.72v5.508h-5.64zm0-.984h4.644v-2.004h-5.112v1.536c0 .128.044.24.132.336a.482.482 0 00.336.132zm6.821.984v-5.508c0-.264.064-.504.192-.72.136-.224.312-.4.528-.528.224-.136.468-.204.732-.204h3.912v.984h-3.912a.46.46 0 00-.336.144.44.44 0 00-.132.324v5.508h-.984zm7.58 0a1.45 1.45 0 01-.731-.192 1.664 1.664 0 01-.528-.528 1.45 1.45 0 01-.192-.732v-4.056c0-.264.064-.504.192-.72.136-.224.312-.4.528-.528.224-.136.468-.204.732-.204h5.616v.984h-5.616a.46.46 0 00-.336.144.44.44 0 00-.132.324v4.056c0 .128.044.24.132.336a.482.482 0 00.336.132h5.64v.984h-5.64zm6.753 0v-9.24h.983v2.28h4.656c.264 0 .504.068.72.204.224.128.4.304.528.528.136.216.204.456.204.72v5.508h-.984v-5.508a.423.423 0 00-.144-.324.423.423 0 00-.324-.144h-4.175a.46.46 0 00-.336.144.423.423 0 00-.145.324v5.508h-.983zM342.761 204.536a1.45 1.45 0 01-.732-.192 1.45 1.45 0 01-.516-.516 1.45 1.45 0 01-.192-.732v-7.2h.972v7.2c0 .128.044.24.132.336a.482.482 0 00.336.132h5.76a.44.44 0 00.324-.132.46.46 0 00.144-.336v-7.2h.972v7.2c0 .264-.064.508-.192.732a1.421 1.421 0 01-.528.516 1.386 1.386 0 01-.72.192h-5.76zm9.877 0a1.45 1.45 0 01-.732-.192 1.664 1.664 0 01-.528-.528 1.45 1.45 0 01-.192-.732v-.096h.984v.096c0 .128.044.24.132.336a.482.482 0 00.336.132h4.176a.44.44 0 00.324-.132.46.46 0 00.144-.336v-1.068a.423.423 0 00-.144-.324.423.423 0 00-.324-.144h-4.176a1.45 1.45 0 01-.732-.192 1.664 1.664 0 01-.528-.528 1.45 1.45 0 01-.192-.732v-1.068c0-.264.064-.504.192-.72.136-.224.312-.4.528-.528.224-.136.468-.204.732-.204h4.176c.272 0 .516.068.732.204.224.128.4.304.528.528.136.216.204.456.204.72v.096h-.996v-.096a.423.423 0 00-.144-.324.423.423 0 00-.324-.144h-4.176a.46.46 0 00-.336.144.44.44 0 00-.132.324v1.068c0 .128.044.24.132.336a.482.482 0 00.336.132h4.176c.272 0 .516.068.732.204.224.128.4.304.528.528.136.216.204.456.204.72v1.068c0 .264-.068.508-.204.732a1.517 1.517 0 01-.528.528c-.216.128-.46.192-.732.192h-4.176zm8.086 0a1.45 1.45 0 01-.732-.192 1.66 1.66 0 01-.527-.528 1.45 1.45 0 01-.192-.732v-4.056c0-.264.064-.504.192-.72.136-.224.311-.4.527-.528.224-.136.468-.204.732-.204h4.176c.272 0 .516.068.732.204.224.128.4.304.528.528.136.216.204.456.204.72v2.52h-6.108v1.536c0 .128.044.24.132.336a.482.482 0 00.336.132h5.64v.984h-5.64zm-.468-3.972h5.112v-1.536a.423.423 0 00-.144-.324.423.423 0 00-.324-.144h-4.176a.46.46 0 00-.336.144.44.44 0 00-.132.324v1.536zm7.278 3.972v-5.508c0-.264.064-.504.192-.72.136-.224.312-.4.528-.528.224-.136.468-.204.732-.204h3.912v.984h-3.912a.46.46 0 00-.336.144.44.44 0 00-.132.324v5.508h-.984zm-26.165 15v-8.64h7.884v.972h-6.912v2.856h5.556v.984h-5.556v3.828h-.972zm10.039 0a1.45 1.45 0 01-.732-.192 1.664 1.664 0 01-.528-.528 1.45 1.45 0 01-.192-.732v-4.056c0-.264.064-.504.192-.72.136-.224.312-.4.528-.528.224-.136.468-.204.732-.204h4.176c.272 0 .516.068.732.204.224.128.4.304.528.528.136.216.204.456.204.72v2.52h-6.108v1.536c0 .128.044.24.132.336a.482.482 0 00.336.132h5.64v.984h-5.64zm-.468-3.972h5.112v-1.536a.423.423 0 00-.144-.324.423.423 0 00-.324-.144h-4.176a.46.46 0 00-.336.144.44.44 0 00-.132.324v1.536zm8.601 3.972a1.45 1.45 0 01-.732-.192 1.664 1.664 0 01-.528-.528 1.45 1.45 0 01-.192-.732v-4.056c0-.264.064-.504.192-.72.136-.224.312-.4.528-.528.224-.136.468-.204.732-.204h4.176c.272 0 .516.068.732.204.224.128.4.304.528.528.136.216.204.456.204.72v2.52h-6.108v1.536c0 .128.044.24.132.336a.482.482 0 00.336.132h5.64v.984h-5.64zm-.468-3.972h5.112v-1.536a.423.423 0 00-.144-.324.423.423 0 00-.324-.144h-4.176a.46.46 0 00-.336.144.44.44 0 00-.132.324v1.536zm8.452 3.972c-.272 0-.52-.064-.744-.192a1.664 1.664 0 01-.528-.528 1.45 1.45 0 01-.192-.732v-4.056c0-.264.064-.504.192-.72.136-.224.312-.4.528-.528.224-.136.472-.204.744-.204h4.644v-2.28h.984v9.24h-5.628zm0-.984h4.176a.44.44 0 00.324-.132.46.46 0 00.144-.336v-4.056a.423.423 0 00-.144-.324.423.423 0 00-.324-.144h-4.176a.46.46 0 00-.336.144.44.44 0 00-.132.324v4.056c0 .128.044.24.132.336a.482.482 0 00.336.132zm6.912.984v-9.24h.984v2.28h4.656c.264 0 .504.068.72.204.224.128.4.304.528.528.136.216.204.456.204.72v4.056c0 .264-.068.508-.204.732a1.517 1.517 0 01-.528.528 1.386 1.386 0 01-.72.192h-5.64zm1.464-.984h4.176a.44.44 0 00.324-.132.46.46 0 00.144-.336v-4.056a.423.423 0 00-.144-.324.423.423 0 00-.324-.144h-4.176a.46.46 0 00-.336.144.423.423 0 00-.144.324v4.056c0 .128.048.24.144.336a.482.482 0 00.336.132zm7.968.984a1.45 1.45 0 01-.732-.192 1.664 1.664 0 01-.528-.528 1.45 1.45 0 01-.192-.732v-2.52h6.095v-1.536a.423.423 0 00-.144-.324.423.423 0 00-.324-.144h-5.627v-.984h5.627c.272 0 .516.068.732.204.224.128.4.304.528.528.136.216.204.456.204.72v5.508h-5.639zm0-.984h4.643v-2.004h-5.111v1.536c0 .128.044.24.132.336a.482.482 0 00.336.132zm8.202.984a1.45 1.45 0 01-.732-.192 1.664 1.664 0 01-.528-.528 1.45 1.45 0 01-.192-.732v-4.056c0-.264.064-.504.192-.72.136-.224.312-.4.528-.528.224-.136.468-.204.732-.204h5.616v.984h-5.616a.46.46 0 00-.336.144.44.44 0 00-.132.324v4.056c0 .128.044.24.132.336a.482.482 0 00.336.132h5.64v.984h-5.64zm6.693 0v-9.24h.984v5.268h1.92l2.736-2.988h1.296v.012l-3.156 3.468 3.144 3.468v.012h-1.284l-2.736-2.988h-1.92v2.988h-.984zM283.964 382.717v-8.627h7.2c.264 0 .504.068.72.204.224.128.4.3.528.516.128.216.192.456.192.72v2.531c0 .264-.064.504-.192.72a1.517 1.517 0 01-.528.528 1.386 1.386 0 01-.72.192h-6.228v3.216h-.972zm1.44-4.2h5.76a.44.44 0 00.324-.132.423.423 0 00.144-.324v-2.531a.423.423 0 00-.144-.324.423.423 0 00-.324-.144h-5.76a.46.46 0 00-.336.144.44.44 0 00-.132.324v2.531a.44.44 0 00.132.324.482.482 0 00.336.132zm8.004 4.2v-5.508c0-.264.064-.504.192-.72.136-.224.312-.399.528-.527.224-.136.468-.204.732-.204h3.912v.983h-3.912a.46.46 0 00-.336.144.44.44 0 00-.132.324v5.508h-.984zm7.522 0a1.45 1.45 0 01-.732-.192 1.664 1.664 0 01-.528-.528 1.45 1.45 0 01-.192-.732v-4.056c0-.264.064-.504.192-.72.136-.224.312-.399.528-.527.224-.136.468-.204.732-.204h4.176c.272 0 .516.068.732.204.224.128.4.303.528.527.136.216.204.456.204.72v4.056c0 .264-.068.508-.204.732a1.517 1.517 0 01-.528.528c-.216.128-.46.192-.732.192h-4.176zm0-.984h4.176a.44.44 0 00.324-.132.46.46 0 00.144-.336v-4.056a.423.423 0 00-.144-.324.423.423 0 00-.324-.144h-4.176a.46.46 0 00-.336.144.44.44 0 00-.132.324v4.056c0 .128.044.24.132.336a.482.482 0 00.336.132zm8.051.984c-.272 0-.52-.064-.744-.192a1.55 1.55 0 01-.516-.528 1.45 1.45 0 01-.192-.732v-7.787h.984v2.28h3.012v.983h-3.012v4.524c0 .128.044.24.132.336a.482.482 0 00.336.132h2.544v.984h-2.544zm4.898 0a1.45 1.45 0 01-.732-.192 1.664 1.664 0 01-.528-.528 1.45 1.45 0 01-.192-.732v-4.056c0-.264.064-.504.192-.72.136-.224.312-.399.528-.527.224-.136.468-.204.732-.204h4.176c.272 0 .516.068.732.204.224.128.4.303.528.527.136.216.204.456.204.72v4.056c0 .264-.068.508-.204.732a1.517 1.517 0 01-.528.528c-.216.128-.46.192-.732.192h-4.176zm0-.984h4.176a.44.44 0 00.324-.132.46.46 0 00.144-.336v-4.056a.423.423 0 00-.144-.324.423.423 0 00-.324-.144h-4.176a.46.46 0 00-.336.144.44.44 0 00-.132.324v4.056c0 .128.044.24.132.336a.482.482 0 00.336.132zm8.051.984c-.272 0-.52-.064-.744-.192a1.55 1.55 0 01-.516-.528 1.45 1.45 0 01-.192-.732v-7.787h.984v2.28h3.012v.983h-3.012v4.524c0 .128.044.24.132.336a.482.482 0 00.336.132h2.544v.984h-2.544zm4.622 2.76v-.996h4.344a.423.423 0 00.324-.144.423.423 0 00.144-.324v-1.296h-4.644a1.45 1.45 0 01-.732-.192 1.664 1.664 0 01-.528-.528 1.45 1.45 0 01-.192-.732v-5.483h.984v5.483c0 .128.044.24.132.336a.482.482 0 00.336.132h4.176a.44.44 0 00.324-.132.46.46 0 00.144-.336v-5.483h.984v8.231c0 .272-.064.516-.192.732-.128.224-.304.4-.528.528-.216.136-.46.204-.732.204h-4.344zm7.074 0v-9.719h5.64c.264 0 .504.068.72.204.224.128.4.303.528.527.136.216.204.456.204.72v4.056c0 .264-.068.508-.204.732a1.517 1.517 0 01-.528.528 1.386 1.386 0 01-.72.192h-4.656v2.76h-.984zm1.464-3.744h4.176a.44.44 0 00.324-.132.46.46 0 00.144-.336v-4.056a.423.423 0 00-.144-.324.423.423 0 00-.324-.144h-4.176a.46.46 0 00-.336.144.423.423 0 00-.144.324v4.056c0 .128.048.24.144.336a.482.482 0 00.336.132zm6.657.984v-6.959h.984v6.959h-.984zm0-8.255v-.984h.984v.984h-.984zm2.344 8.255v-6.959h5.64c.264 0 .504.068.72.204.224.128.4.303.528.527.136.216.204.456.204.72v5.508h-.984v-5.508a.423.423 0 00-.144-.324.423.423 0 00-.324-.144h-4.176a.46.46 0 00-.336.144.423.423 0 00-.144.324v5.508h-.984zm9.483 2.748v-.996h4.344a.423.423 0 00.324-.144.423.423 0 00.144-.324v-1.284h-4.644a1.45 1.45 0 01-.732-.192 1.664 1.664 0 01-.528-.528 1.45 1.45 0 01-.192-.732v-4.056c0-.264.064-.504.192-.72.136-.224.312-.399.528-.527.224-.136.468-.204.732-.204h4.176c.272 0 .516.068.732.204.224.128.4.303.528.527.128.216.192.456.192.72v6.792c0 .272-.064.516-.192.732-.128.224-.304.4-.528.528-.216.136-.46.204-.732.204h-4.344zm.168-3.732h4.176a.44.44 0 00.324-.132.46.46 0 00.144-.336v-4.056a.423.423 0 00-.144-.324.423.423 0 00-.324-.144h-4.176a.46.46 0 00-.336.144.44.44 0 00-.132.324v4.056c0 .128.044.24.132.336a.482.482 0 00.336.132zm11.604.984a1.45 1.45 0 01-.731-.192 1.664 1.664 0 01-.528-.528 1.45 1.45 0 01-.192-.732v-2.58c0-.176.108-.348.324-.516.216-.176.504-.264.864-.264-.456-.344-.684-.728-.684-1.152v-1.199c0-.272.064-.516.192-.732.136-.224.312-.4.528-.528.223-.136.467-.204.731-.204h4.932c.224 0 .436.06.636.18.2.112.372.264.516.456.152.184.256.38.312.588v.66h-.996v-.408a.423.423 0 00-.144-.324.423.423 0 00-.324-.144h-4.932a.46.46 0 00-.336.144.44.44 0 00-.132.324v1.667l6.252 3.156v-1.668h.984v1.992l1.608.948v.864l-1.644-.924c-.128.328-.32.596-.576.804a1.303 1.303 0 01-.84.312h-5.82zm0-.984h5.82c.08 0 .164-.04.252-.12a.832.832 0 00.228-.312l-6.12-3.084h-.18a.46.46 0 00-.335.144.44.44 0 00-.132.324v2.58c0 .128.044.24.132.336a.481.481 0 00.335.132zm-81.358 15.984v-8.639h7.2c.264 0 .504.064.72.192.224.128.4.304.528.528.128.216.192.456.192.72v5.759c0 .264-.064.508-.192.732a1.421 1.421 0 01-.528.516 1.386 1.386 0 01-.72.192h-7.2zm1.44-.972h5.76a.44.44 0 00.324-.132.46.46 0 00.144-.336v-5.759a.423.423 0 00-.144-.324.423.423 0 00-.324-.144h-5.76a.46.46 0 00-.336.144.44.44 0 00-.132.324v5.759c0 .128.044.24.132.336a.482.482 0 00.336.132zm9.936.972a1.45 1.45 0 01-.732-.192 1.664 1.664 0 01-.528-.528 1.45 1.45 0 01-.192-.732v-4.056c0-.264.064-.504.192-.72.136-.224.312-.399.528-.527.224-.136.468-.204.732-.204h4.176c.272 0 .516.068.732.204.224.128.4.303.528.527.136.216.204.456.204.72v2.52h-6.108v1.536c0 .128.044.24.132.336a.482.482 0 00.336.132h5.64v.984h-5.64zm-.468-3.972h5.112v-1.536a.423.423 0 00-.144-.324.423.423 0 00-.324-.144h-4.176a.46.46 0 00-.336.144.44.44 0 00-.132.324v1.536zm10.57 3.972l-3.84-6.959h1.152l3.264 5.999 3.264-5.999h1.152l-3.852 6.959h-1.14zm7.089 0a1.45 1.45 0 01-.732-.192 1.664 1.664 0 01-.528-.528 1.45 1.45 0 01-.192-.732v-4.056c0-.264.064-.504.192-.72.136-.224.312-.399.528-.527.224-.136.468-.204.732-.204h4.176c.272 0 .516.068.732.204.224.128.4.303.528.527.136.216.204.456.204.72v2.52h-6.108v1.536c0 .128.044.24.132.336a.482.482 0 00.336.132h5.64v.984h-5.64zm-.468-3.972h5.112v-1.536a.423.423 0 00-.144-.324.423.423 0 00-.324-.144h-4.176a.46.46 0 00-.336.144.44.44 0 00-.132.324v1.536zm8.554 3.972a1.45 1.45 0 01-.732-.192 1.664 1.664 0 01-.528-.528 1.45 1.45 0 01-.192-.732v-7.787h.984v7.787c0 .128.044.24.132.336a.482.482 0 00.336.132h1.176v.984h-1.176zm3.491 0a1.45 1.45 0 01-.732-.192 1.66 1.66 0 01-.527-.528 1.45 1.45 0 01-.192-.732v-4.056c0-.264.064-.504.192-.72a1.51 1.51 0 01.527-.527c.224-.136.468-.204.732-.204h4.176c.272 0 .516.068.732.204.224.128.4.303.528.527.136.216.204.456.204.72v4.056c0 .264-.068.508-.204.732a1.517 1.517 0 01-.528.528c-.216.128-.46.192-.732.192h-4.176zm0-.984h4.176a.44.44 0 00.324-.132.46.46 0 00.144-.336v-4.056a.423.423 0 00-.144-.324.423.423 0 00-.324-.144h-4.176a.46.46 0 00-.336.144.44.44 0 00-.132.324v4.056c0 .128.044.24.132.336a.482.482 0 00.336.132zm6.893 3.744v-9.719h5.64c.264 0 .504.068.72.204.224.128.4.303.528.527.136.216.204.456.204.72v4.056c0 .264-.068.508-.204.732a1.517 1.517 0 01-.528.528 1.386 1.386 0 01-.72.192h-4.656v2.76h-.984zm1.464-3.744h4.176a.44.44 0 00.324-.132.46.46 0 00.144-.336v-4.056a.423.423 0 00-.144-.324.423.423 0 00-.324-.144h-4.176a.46.46 0 00-.336.144.423.423 0 00-.144.324v4.056c0 .128.048.24.144.336a.482.482 0 00.336.132zm6.504.984v-6.959h9.192c.272 0 .516.068.732.204.224.128.4.303.528.527.128.216.192.456.192.72v5.508h-.972v-5.508a.423.423 0 00-.144-.324.46.46 0 00-.336-.144h-2.892a.46.46 0 00-.336.144.44.44 0 00-.132.324v5.508h-.996v-5.508a.423.423 0 00-.144-.324.423.423 0 00-.324-.144h-2.904a.46.46 0 00-.336.144.44.44 0 00-.132.324v5.508h-.996zm13.146 0a1.45 1.45 0 01-.732-.192 1.664 1.664 0 01-.528-.528 1.45 1.45 0 01-.192-.732v-4.056c0-.264.064-.504.192-.72.136-.224.312-.399.528-.527.224-.136.468-.204.732-.204h4.176c.272 0 .516.068.732.204.224.128.4.303.528.527.136.216.204.456.204.72v2.52h-6.108v1.536c0 .128.044.24.132.336a.482.482 0 00.336.132h5.64v.984h-5.64zm-.468-3.972h5.112v-1.536a.423.423 0 00-.144-.324.423.423 0 00-.324-.144h-4.176a.46.46 0 00-.336.144.44.44 0 00-.132.324v1.536zm7.361 3.972v-6.959h5.64c.264 0 .504.068.719.204.224.128.4.303.528.527.136.216.204.456.204.72v5.508h-.983v-5.508a.423.423 0 00-.144-.324.423.423 0 00-.324-.144h-4.176a.46.46 0 00-.336.144.423.423 0 00-.144.324v5.508h-.984zm9.795 0c-.272 0-.52-.064-.744-.192a1.55 1.55 0 01-.516-.528 1.45 1.45 0 01-.192-.732v-7.787h.984v2.28h3.012v.983h-3.012v4.524c0 .128.044.24.132.336a.482.482 0 00.336.132h2.544v.984h-2.544zM39.112 366.157a1.45 1.45 0 01-.732-.192 1.45 1.45 0 01-.516-.516 1.45 1.45 0 01-.192-.732v-5.76c0-.264.064-.504.192-.72.128-.224.3-.4.516-.528a1.45 1.45 0 01.732-.192h7.176v.972h-7.176a.46.46 0 00-.336.144.44.44 0 00-.132.324v5.76c0 .128.044.24.132.336a.482.482 0 00.336.132h7.176v.972h-7.176zm8.379 0v-5.508c0-.264.064-.504.192-.72.136-.224.312-.4.528-.528.224-.136.468-.204.732-.204h3.912v.984h-3.912a.46.46 0 00-.336.144.44.44 0 00-.132.324v5.508h-.984zm7.522 0a1.45 1.45 0 01-.732-.192 1.664 1.664 0 01-.528-.528 1.45 1.45 0 01-.192-.732v-4.056c0-.264.064-.504.192-.72.136-.224.312-.4.528-.528.224-.136.468-.204.732-.204h4.175c.273 0 .517.068.732.204.224.128.4.304.528.528.136.216.204.456.204.72v4.056c0 .264-.068.508-.204.732a1.517 1.517 0 01-.528.528c-.215.128-.46.192-.732.192h-4.175zm0-.984h4.175a.44.44 0 00.325-.132.46.46 0 00.144-.336v-4.056a.423.423 0 00-.144-.324.423.423 0 00-.325-.144h-4.175a.46.46 0 00-.336.144.44.44 0 00-.132.324v4.056c0 .128.044.24.132.336a.482.482 0 00.336.132zm8.038.984a1.45 1.45 0 01-.732-.192 1.664 1.664 0 01-.528-.528 1.45 1.45 0 01-.192-.732v-.096h.984v.096c0 .128.044.24.132.336a.482.482 0 00.336.132h4.175a.44.44 0 00.324-.132.46.46 0 00.144-.336v-1.068a.423.423 0 00-.144-.324.423.423 0 00-.324-.144h-4.175a1.45 1.45 0 01-.732-.192 1.664 1.664 0 01-.528-.528 1.45 1.45 0 01-.192-.732v-1.068c0-.264.064-.504.192-.72.136-.224.312-.4.528-.528.224-.136.468-.204.732-.204h4.175c.272 0 .516.068.732.204.224.128.4.304.528.528.136.216.204.456.204.72v.096h-.996v-.096a.423.423 0 00-.144-.324.423.423 0 00-.324-.144h-4.175a.46.46 0 00-.336.144.44.44 0 00-.132.324v1.068c0 .128.044.24.132.336a.482.482 0 00.336.132h4.175c.272 0 .516.068.732.204.224.128.4.304.528.528.136.216.204.456.204.72v1.068c0 .264-.068.508-.204.732a1.517 1.517 0 01-.528.528c-.216.128-.46.192-.732.192h-4.175zm8.226 0a1.45 1.45 0 01-.732-.192 1.664 1.664 0 01-.528-.528 1.45 1.45 0 01-.192-.732v-.096h.984v.096c0 .128.044.24.132.336a.482.482 0 00.336.132h4.176a.44.44 0 00.324-.132.46.46 0 00.144-.336v-1.068a.423.423 0 00-.144-.324.423.423 0 00-.324-.144h-4.176a1.45 1.45 0 01-.732-.192 1.664 1.664 0 01-.528-.528 1.45 1.45 0 01-.192-.732v-1.068c0-.264.064-.504.192-.72.136-.224.312-.4.528-.528.224-.136.468-.204.732-.204h4.176c.272 0 .516.068.732.204.224.128.4.304.528.528.136.216.204.456.204.72v.096h-.996v-.096a.423.423 0 00-.144-.324.423.423 0 00-.324-.144h-4.176a.46.46 0 00-.336.144.44.44 0 00-.132.324v1.068c0 .128.044.24.132.336a.482.482 0 00.336.132h4.176c.272 0 .516.068.732.204.224.128.4.304.528.528.136.216.204.456.204.72v1.068c0 .264-.068.508-.204.732a1.517 1.517 0 01-.528.528c-.216.128-.46.192-.732.192h-4.176zm-32.165 15a1.45 1.45 0 01-.732-.192 1.45 1.45 0 01-.516-.516 1.45 1.45 0 01-.192-.732v-5.76c0-.264.064-.504.192-.72.128-.224.3-.4.516-.528a1.45 1.45 0 01.732-.192h7.176v.972h-7.176a.46.46 0 00-.336.144.44.44 0 00-.132.324v5.76c0 .128.044.24.132.336a.482.482 0 00.336.132h7.176v.972h-7.176zm9.819 0a1.45 1.45 0 01-.732-.192 1.664 1.664 0 01-.528-.528 1.45 1.45 0 01-.192-.732v-4.056c0-.264.064-.504.192-.72.136-.224.312-.4.528-.528.224-.136.468-.204.732-.204h4.176c.272 0 .516.068.732.204.224.128.4.304.528.528.136.216.204.456.204.72v4.056c0 .264-.068.508-.204.732a1.517 1.517 0 01-.528.528c-.216.128-.46.192-.732.192H48.93zm0-.984h4.176a.44.44 0 00.324-.132.46.46 0 00.144-.336v-4.056a.423.423 0 00-.144-.324.422.422 0 00-.324-.144H48.93a.46.46 0 00-.336.144.44.44 0 00-.132.324v4.056c0 .128.044.24.132.336a.482.482 0 00.336.132zm8.086.984a1.45 1.45 0 01-.732-.192 1.664 1.664 0 01-.528-.528 1.45 1.45 0 01-.192-.732v-7.788h.984v7.788c0 .128.044.24.132.336a.482.482 0 00.336.132h1.176v.984h-1.176zm3.62 0a1.45 1.45 0 01-.731-.192 1.663 1.663 0 01-.528-.528 1.45 1.45 0 01-.192-.732v-7.788h.984v7.788c0 .128.044.24.132.336a.482.482 0 00.336.132h1.176v.984h-1.176zm3.504 0a1.45 1.45 0 01-.732-.192 1.664 1.664 0 01-.527-.528 1.45 1.45 0 01-.192-.732v-2.52h6.095v-1.536a.423.423 0 00-.144-.324.423.423 0 00-.324-.144H62.69v-.984h5.627c.272 0 .516.068.732.204.224.128.4.304.528.528.136.216.204.456.204.72v5.508h-5.64zm0-.984h4.644v-2.004h-5.111v1.536c0 .128.044.24.132.336a.482.482 0 00.335.132zm6.6.984v-9.24h.984v2.28h4.655c.264 0 .504.068.72.204.224.128.4.304.528.528.136.216.204.456.204.72v4.056c0 .264-.068.508-.204.732a1.517 1.517 0 01-.528.528 1.386 1.386 0 01-.72.192h-5.64zm1.464-.984h4.175a.44.44 0 00.324-.132.46.46 0 00.144-.336v-4.056a.423.423 0 00-.144-.324.423.423 0 00-.324-.144h-4.175a.46.46 0 00-.336.144.423.423 0 00-.144.324v4.056c0 .128.048.24.144.336a.482.482 0 00.336.132zm7.955.984a1.45 1.45 0 01-.732-.192 1.664 1.664 0 01-.528-.528 1.45 1.45 0 01-.192-.732v-4.056c0-.264.064-.504.192-.72.136-.224.312-.4.528-.528.224-.136.468-.204.732-.204h4.176c.272 0 .516.068.732.204.224.128.4.304.528.528.136.216.204.456.204.72v4.056c0 .264-.068.508-.204.732a1.517 1.517 0 01-.528.528c-.216.128-.46.192-.732.192H80.16zm0-.984h4.176a.44.44 0 00.324-.132.46.46 0 00.144-.336v-4.056a.423.423 0 00-.144-.324.423.423 0 00-.324-.144H80.16a.46.46 0 00-.336.144.44.44 0 00-.132.324v4.056c0 .128.044.24.132.336a.482.482 0 00.336.132zm6.751.984v-5.508c0-.264.064-.504.192-.72.136-.224.312-.4.528-.528.224-.136.468-.204.732-.204h3.912v.984h-3.912a.46.46 0 00-.336.144.44.44 0 00-.132.324v5.508h-.984zm7.593 0a1.45 1.45 0 01-.732-.192 1.664 1.664 0 01-.528-.528 1.45 1.45 0 01-.192-.732v-2.52h6.096v-1.536a.423.423 0 00-.144-.324.423.423 0 00-.324-.144h-5.628v-.984h5.628c.272 0 .516.068.732.204.224.128.4.304.528.528.136.216.204.456.204.72v5.508h-5.64zm0-.984h4.644v-2.004h-5.112v1.536c0 .128.044.24.132.336a.482.482 0 00.336.132zm8.344.984c-.272 0-.52-.064-.744-.192a1.55 1.55 0 01-.516-.528 1.45 1.45 0 01-.192-.732v-7.788h.984v2.28h3.011v.984h-3.011v4.524c0 .128.044.24.132.336a.482.482 0 00.336.132h2.543v.984h-2.543zm3.516 0v-6.96h.984v6.96h-.984zm0-8.256v-.984h.984v.984h-.984zm3.936 8.256a1.45 1.45 0 01-.732-.192 1.664 1.664 0 01-.528-.528 1.45 1.45 0 01-.192-.732v-4.056c0-.264.064-.504.192-.72.136-.224.312-.4.528-.528.224-.136.468-.204.732-.204h4.176c.272 0 .516.068.732.204.224.128.4.304.528.528.136.216.204.456.204.72v4.056c0 .264-.068.508-.204.732a1.517 1.517 0 01-.528.528c-.216.128-.46.192-.732.192H110.3zm0-.984h4.176a.44.44 0 00.324-.132.46.46 0 00.144-.336v-4.056a.423.423 0 00-.144-.324.423.423 0 00-.324-.144H110.3a.46.46 0 00-.336.144.44.44 0 00-.132.324v4.056c0 .128.044.24.132.336a.482.482 0 00.336.132zm6.716.984v-6.96h5.64c.264 0 .504.068.72.204.224.128.4.304.528.528.136.216.204.456.204.72v5.508h-.984v-5.508a.423.423 0 00-.144-.324.423.423 0 00-.324-.144h-4.176a.46.46 0 00-.336.144.423.423 0 00-.144.324v5.508h-.984z"
              ></path>
            </g>
            <defs>
              <filter
                id="filter0_d_0_5782"
                width="213.659"
                height="246.353"
                x="91.898"
                y="116.813"
                colorInterpolationFilters="sRGB"
                filterUnits="userSpaceOnUse"
              >
                <feFlood floodOpacity="0" result="BackgroundImageFix"></feFlood>
                <feColorMatrix
                  in="SourceAlpha"
                  result="hardAlpha"
                  values="0 0 0 0 0 0 0 0 0 0 0 0 0 0 0 0 0 0 127 0"
                ></feColorMatrix>
                <feOffset dy="4"></feOffset>
                <feGaussianBlur stdDeviation="4"></feGaussianBlur>
                <feComposite in2="hardAlpha" operator="out"></feComposite>
                <feColorMatrix values="0 0 0 0 0.113515 0 0 0 0 0.052763 0 0 0 0 0.643717 0 0 0 1 0"></feColorMatrix>
                <feBlend
                  in2="BackgroundImageFix"
                  result="effect1_dropShadow_0_5782"
                ></feBlend>
                <feBlend
                  in="SourceGraphic"
                  in2="effect1_dropShadow_0_5782"
                  result="shape"
                ></feBlend>
              </filter>
              <filter
                id="filter1_d_0_5782"
                width="213.659"
                height="246.353"
                x="91.898"
                y="116.813"
                colorInterpolationFilters="sRGB"
                filterUnits="userSpaceOnUse"
              >
                <feFlood floodOpacity="0" result="BackgroundImageFix"></feFlood>
                <feColorMatrix
                  in="SourceAlpha"
                  result="hardAlpha"
                  values="0 0 0 0 0 0 0 0 0 0 0 0 0 0 0 0 0 0 127 0"
                ></feColorMatrix>
                <feOffset dy="4"></feOffset>
                <feGaussianBlur stdDeviation="4"></feGaussianBlur>
                <feComposite in2="hardAlpha" operator="out"></feComposite>
                <feColorMatrix values="0 0 0 0 0.113515 0 0 0 0 0.052763 0 0 0 0 0.643717 0 0 0 1 0"></feColorMatrix>
                <feBlend
                  in2="BackgroundImageFix"
                  result="effect1_dropShadow_0_5782"
                ></feBlend>
                <feBlend
                  in="SourceGraphic"
                  in2="effect1_dropShadow_0_5782"
                  result="shape"
                ></feBlend>
              </filter>
              <linearGradient
                id="paint0_linear_0_5782"
                x1="0.025"
                x2="392.127"
                y1="-0.001"
                y2="-0.001"
                gradientUnits="userSpaceOnUse"
              >
                <stop stopColor="#2E18EE"></stop>
                <stop
                  offset="0.27"
                  stopColor="#2E18EE"
                  stopOpacity="0.81"
                ></stop>
                <stop offset="1" stopColor="#2E18EE" stopOpacity="0.29"></stop>
              </linearGradient>
              <clipPath id="clip0_0_5782">
                <path fill="#fff" d="M0 0H425V420H0z"></path>
              </clipPath>
            </defs>
          </svg>