<svg width="186" height="92" viewBox="0 0 186 92" fill="none" xmlns="http://www.w3.org/2000/svg">
<path fill-rule="evenodd" clip-rule="evenodd" d="M57.1397 45.4904C58.5629 42.1221 59.7845 40.6752 61.5279 40.2601C62.3818 40.0585 63.4729 40.1178 64.1727 40.4025C67.446 41.7545 70.2924 45.8818 72.4747 52.4641C73.803 56.4609 74.479 59.7224 75.155 65.3914C75.4041 67.5737 75.499 72.4481 75.3329 74.5829C74.7281 81.948 70.9684 88.044 65.5959 90.3449C65.1689 90.5228 64.6589 90.7481 64.4573 90.843C63.9829 91.0565 62.0853 91.5546 61.1484 91.7088C55.5504 92.6694 50.3795 91.2344 46.691 87.6882C44.3546 85.4467 42.8009 82.7189 41.8759 79.2439C41.3422 77.2158 41.1524 75.8638 41.0812 73.4444C40.9271 68.7122 41.7928 63.7785 43.2398 61.1574C43.7616 60.2086 45.1492 58.3348 46.0506 57.3741C46.7859 56.6032 49.0037 54.753 50.332 53.828C51.269 53.1757 53.3089 51.3611 54.1154 50.4716C54.9337 49.5584 56.5467 46.9017 57.1397 45.4904ZM62.453 46.2969C62.3581 45.4192 62.2513 44.5772 62.2158 44.4348C62.1802 44.2925 62.0497 44.1146 61.9193 44.0435C61.5397 43.8418 61.3737 44.3044 61.1009 46.3206C60.8281 48.3249 60.7333 48.6926 60.1403 49.8667C59.6066 50.9104 57.6734 53.9466 56.8313 55.0495C55.2777 57.0895 53.8545 60.0426 53.2022 62.5688C51.8501 67.7634 52.2415 72.1398 54.6965 79.2083C57.0567 86.0634 59.9505 90.4397 62.1209 90.4397C62.619 90.4397 62.7376 90.3804 63.1171 89.9772C63.7338 89.313 64.0303 88.4117 64.1845 86.7276C64.3268 85.1739 64.2082 82.8019 63.888 80.7501C63.7931 80.1571 63.6508 79.1727 63.5797 78.556C63.4966 77.9393 63.2239 76.1484 62.9629 74.5829C62.4174 71.2859 62.2039 69.7678 62.0972 68.3564L62.0729 68.0702C62.0189 67.4321 61.9292 66.3715 61.8481 65.51C61.5872 62.6755 61.5279 59.7342 61.6702 57.3622C61.8007 55.2512 61.8718 54.587 62.2158 52.4048C62.5597 50.2581 62.6546 48.0521 62.453 46.2969ZM76.246 48.5146C76.2222 53.4603 76.246 58.145 76.2934 58.9277C76.3408 59.7105 76.412 61.8927 76.4594 63.7903C76.5069 65.676 76.578 67.3127 76.6373 67.4195C76.7678 67.6685 77.0999 67.7515 77.432 67.6329C77.681 67.5381 77.6929 67.455 77.6929 66.4351C77.6929 65.2728 78.025 62.6992 78.3452 61.2997C78.5231 60.5169 78.9975 58.9752 79.6735 56.9708C81.1086 52.7131 84.1329 48.1944 86.9911 46.0122C87.9874 45.2531 89.3987 44.5178 90.0391 44.4348C90.4779 44.3755 90.4898 44.3755 90.5728 44.8262C90.7151 45.5734 90.5135 58.4414 90.3238 61.1811C90.0747 64.7154 89.8731 66.2453 89.114 70.0168C87.5011 78.1409 84.6547 86.2057 81.9743 90.2618L81.2509 91.3648H91.6284H102.018L101.437 90.499C99.3611 87.4154 97.2144 82.8612 95.8387 78.6153C95.1271 76.4212 94.3443 73.2664 94.119 71.6772L93.6446 68.3564C93.1583 65.1186 93.1227 64.6679 92.933 60.3509C92.8381 58.0619 92.7076 55.2393 92.6483 54.0651C92.4586 50.5783 92.3637 45.9054 92.4586 45.2413L92.5416 44.6127L92.9448 44.672C93.7513 44.8025 95.898 46.3324 97.5346 47.9216C99.6457 49.9853 101.508 53.2705 102.919 57.3859C103.643 59.5089 104.212 62.1062 104.674 65.3914C104.781 66.1386 104.923 66.8976 104.995 67.0874C105.161 67.5143 105.623 67.6329 105.908 67.3364C106.109 67.123 106.121 66.5537 106.05 57.4452L105.979 47.7793L104.2 46.9017C101.306 45.4666 95.8624 43.4267 93.0516 42.727C92.2688 42.5253 91.2014 42.2407 90.6796 42.0747C89.624 41.7426 87.6434 41.2919 85.7577 40.9598C85.0698 40.8412 83.9312 40.604 83.2078 40.4498C82.4962 40.2838 81.666 40.1178 81.3695 40.0822C81.1598 40.057 80.6003 39.9785 79.9592 39.8885L79.9591 39.8885L79.9586 39.8884C79.6932 39.8512 79.414 39.812 79.1398 39.7738C78.2029 39.6434 77.1829 39.5366 76.8627 39.5366H76.2815L76.246 48.5146ZM140.705 3.482C141.523 1.80975 143.729 0.256088 145.591 0.0544662C146.683 -0.0641327 147.453 0.00702667 148.319 0.303528C151.391 1.35907 153.597 4.77474 153.597 8.47506C153.597 9.77966 153.289 11.1791 152.826 11.9738C152.411 12.6854 151.438 13.7172 150.774 14.1441C149.161 15.176 146.54 15.0811 144.37 13.9188C143.421 13.4088 143.16 13.3851 143.16 13.8239C143.16 14.6423 144.583 15.9706 148.201 18.5442C150.3 20.0386 151.118 20.7739 151.794 21.7938C152.992 23.5847 153.17 25.0435 152.375 26.6327C151.64 28.1389 150.786 28.8505 147.37 30.8667C145.129 32.195 144.405 32.7287 143.445 33.7606C141.867 35.4565 141.156 37.3186 141.061 40.0701C140.99 42.0151 141.096 42.5607 141.891 44.1025C142.84 45.9408 144.56 47.2691 148.023 48.8465C151.225 50.2934 152.103 50.9338 153.016 52.4638C154.617 55.156 154.89 58.548 153.68 60.8132C152.743 62.5804 150.715 63.9798 148.746 64.2289C146.505 64.5135 144.465 63.8375 142.662 62.2127C142.093 61.7027 141.227 60.5049 140.847 59.7102C140.219 58.4175 140.195 58.1447 140.017 51.515C139.934 48.0874 139.827 44.565 139.792 43.6874C139.697 41.683 139.899 38.718 140.195 37.4372C140.646 35.5514 141.512 33.9503 142.781 32.6813C143.753 31.7088 144.394 31.2581 147.121 29.6333C149.861 28.0085 150.786 27.2257 151.355 26.0634C151.818 25.1265 151.794 24.4149 151.26 23.2763C150.81 22.3157 150.015 21.5211 148.402 20.3825C145.532 18.3663 143.113 16.2196 142.069 14.749C140.42 12.4126 139.827 10.6573 139.804 7.9295C139.78 6.04376 140.017 4.86962 140.705 3.482ZM2.65482 19.1964C5.32332 13.8594 9.9843 10.7165 16.1396 10.1354C20.6346 9.70842 25.4023 10.7995 29.66 13.2308L29.7851 13.3019L29.7851 13.3019C30.7803 13.8672 31.1026 14.0502 31.145 14.284C31.1653 14.396 31.1214 14.5196 31.0565 14.7024L31.0358 14.7608C30.9409 15.0454 30.5614 16.1365 30.1937 17.1802C29.8261 18.2239 29.4228 19.3743 29.3042 19.7301C29.1856 20.0859 28.7824 21.2363 28.4147 22.28C28.0471 23.3237 27.6438 24.4741 27.5252 24.8299C27.4631 25.0163 27.3359 25.3752 27.1862 25.7975L27.1861 25.7978C27.05 26.1815 26.8955 26.6176 26.7543 27.024C26.4578 27.8661 26.0783 28.969 25.9123 29.4553C25.7462 29.9416 25.5683 30.4515 25.509 30.582C25.4497 30.7125 25.26 31.2462 25.0821 31.768C24.6847 32.9506 24.6043 33.1898 24.4978 33.2021C24.4708 33.2052 24.4421 33.1937 24.4061 33.1793C24.2993 33.1437 24.2044 32.8354 24.157 32.3254C24.0858 31.5308 23.9317 30.5939 23.7419 29.5739L23.6771 29.245C23.4015 27.847 23.344 27.5553 23.2556 27.2019C22.4847 24.1064 22.3899 23.7744 21.6901 21.7107C20.1009 16.9786 17.8238 13.6341 15.428 12.5074C14.8825 12.2465 14.6097 12.199 13.7676 12.199C12.89 12.199 12.6884 12.2346 12.214 12.5192C10.3045 13.6341 9.30828 16.7177 9.18968 21.8056C9.13038 24.2725 9.13038 24.3081 9.54548 26.5733C10.4706 31.4952 11.6566 35.1125 13.6016 38.9433C15.2501 42.1929 16.958 44.5175 18.6065 45.7984C21.2394 47.8264 24.1333 48.6447 26.2088 47.945C27.7743 47.4113 29.2568 46.0474 29.7786 44.6242C29.921 44.2447 30.1107 43.9245 30.1937 43.9245C30.3954 43.9245 30.6444 45.324 30.5851 46.1186C30.5495 46.6997 30.5377 46.7116 29.8379 47.1385C29.4466 47.3757 28.6757 47.8027 28.1182 48.0992C26.8018 48.7989 25.3549 49.6173 24.2875 50.2577C23.9682 50.4413 23.3964 50.7807 22.818 51.124L22.8175 51.1243L22.816 51.1251C22.5357 51.2916 22.2538 51.4589 21.9985 51.6097C21.2039 52.0841 20.2313 52.7009 19.84 52.9855C19.4486 53.282 18.8912 53.6615 18.6065 53.8394C18.3337 54.0173 17.2782 54.7408 16.282 55.4524L16.1324 55.5592L16.0054 55.6501L16.0053 55.6501C15.0073 56.3641 14.6168 56.6435 14.2384 56.6279C13.9951 56.6179 13.7569 56.486 13.3655 56.2692L13.3648 56.2688L13.364 56.2684C13.3046 56.2355 13.2417 56.2006 13.1746 56.164C6.81768 52.689 1.96694 45.1579 0.496302 36.4764C-0.559237 30.2262 0.199803 24.0946 2.65482 19.1964ZM47.6873 10.1958C46.9994 10.2788 46.2285 10.4092 45.9676 10.4685C44.663 10.7888 44.3784 10.8718 43.5482 11.2157C39.8478 12.7575 36.788 15.6158 34.8311 19.3754C34.2143 20.5495 33.5265 22.3641 33.3367 23.2892C33.3252 23.3436 33.3089 23.4196 33.2894 23.5102L33.2893 23.5109L33.2893 23.511C33.2281 23.7956 33.1358 24.2253 33.0639 24.5938C31.7712 30.8559 33.6451 37.6516 37.8909 42.111C38.2705 42.5261 38.65 42.8582 38.7211 42.8582C38.7923 42.8582 39.5751 42.5379 40.4527 42.1466C42.8247 41.1029 45.2323 40.2015 48.7428 39.0274C49.5493 38.7665 50.2372 38.47 50.2728 38.3751C50.3084 38.2683 50.0593 37.96 49.6205 37.5686C48.2091 36.3233 47.0113 34.3071 45.8134 31.1761C44.1056 26.7404 43.1212 19.743 43.6549 15.8411C44.1649 12.0459 45.9913 10.8599 48.1143 12.9236C49.7391 14.5128 51.4825 18.0471 52.6566 22.1032C53.9257 26.527 54.4356 29.9664 54.2933 33.1686C54.2222 34.7341 53.9731 36.015 53.5461 36.9638C53.2615 37.5923 53.4275 37.6635 54.4949 37.3907C55.9181 37.0349 60.6859 36.3589 62.7495 36.2166C63.8288 36.1454 64.9199 36.0624 65.1927 36.0268L65.6789 35.9675L66.0584 34.7578C67.3393 30.7135 67.2682 26.0881 65.8687 22.0557C64.232 17.3473 60.9942 13.6114 56.7602 11.5478C55.2303 10.8006 53.7952 10.3855 52.0162 10.1839C50.3439 9.98228 49.3833 9.98228 47.6873 10.1958ZM160.25 14.8084C162.919 12.3296 166.513 10.6574 170.32 10.1237C170.747 10.0644 171.814 10.0406 172.692 10.0644C177.649 10.2304 180.567 11.025 184.35 13.2428C185.192 13.741 185.382 13.907 185.334 14.0968C185.311 14.2272 183.852 18.5443 182.097 23.7034C179.76 30.5584 178.859 33.0846 178.716 33.1083C178.562 33.1439 178.503 33.0016 178.444 32.456C177.803 26.4312 176.712 22.2802 174.708 18.2952C172.443 13.7884 169.406 11.4283 167.034 12.3178C165.682 12.8277 164.852 13.7765 164.176 15.6504C163.524 17.4057 163.204 20.2284 163.204 24.2133C163.204 30.6059 164.911 37.627 167.948 43.6993C168.801 45.3953 170.035 47.0557 171.636 48.6568C176.688 53.7092 181.859 55.0375 185.062 52.1081C185.429 51.776 185.785 51.5269 185.856 51.5744C186.046 51.693 185.999 52.2267 185.666 53.5431C185.002 56.176 184.219 57.2672 181.658 59.141C181.017 59.6154 178.669 60.7184 177.27 61.1928C174.222 62.2365 170.213 62.1653 166.833 61.0149C164.307 60.1491 162.136 58.2515 160.049 55.0731C157.309 50.8983 155.257 44.8142 154.795 39.5365C154.107 31.78 154.475 26.8581 156.099 21.9362C156.408 20.9756 156.953 19.6235 157.285 18.9356C157.973 17.5362 159.29 15.6979 160.25 14.8084ZM100.429 10.7997C100.381 10.8352 100.346 17.9868 100.346 26.6802L100.358 42.4896L101.33 42.8098C101.864 42.9877 102.635 43.2842 103.038 43.4621C103.343 43.6057 103.784 43.797 104.145 43.9534L104.282 44.0126C104.346 44.0405 104.406 44.0667 104.461 44.0907C104.841 44.2448 105.837 44.7074 106.679 45.0988C107.521 45.502 108.233 45.7985 108.268 45.7748C108.387 45.6562 108.019 43.6993 107.64 42.3947C107.201 40.9003 106.465 38.9672 105.991 38.0065C105.552 37.1644 104.165 33.8081 103.892 32.966C103.548 31.8986 102.884 29.325 102.552 27.795C101.876 24.6877 101.662 22.6122 101.567 18.3901C101.508 15.3776 101.52 14.8676 101.662 14.9269C101.887 15.01 102.303 16.1722 107.13 30.3449C108.102 33.2151 109.229 36.5003 109.62 37.6388C110.012 38.7774 110.51 40.248 110.723 40.9003C112.075 44.909 113.178 48.0282 113.273 48.1231C113.291 48.1406 113.304 48.1633 113.315 48.1833C113.33 48.2081 113.342 48.2289 113.357 48.2315C113.439 48.2456 113.61 47.74 114.698 44.5314L114.698 44.5312C114.916 43.8895 115.17 43.1396 115.467 42.2642C115.802 41.3008 116.479 39.3034 117.198 37.1848L117.198 37.1836L117.2 37.1787C117.525 36.2216 117.858 35.24 118.171 34.318C118.728 32.6992 119.465 30.5324 120.182 28.4257L120.184 28.42L120.187 28.4109L120.189 28.4062L120.2 28.3741L120.204 28.3602L120.211 28.34C120.797 26.6181 121.367 24.9418 121.812 23.644C122.713 20.9853 123.584 18.4357 123.853 17.6491L123.911 17.4768C124.291 16.3383 124.386 16.1722 124.469 16.4094C124.611 16.8127 124.647 20.5604 124.659 37.1051V54.5393L125.94 55.2509C126.639 55.6304 127.636 56.1997 128.157 56.5081C129.498 57.279 130.031 57.5518 132.249 58.5717C134.253 59.5087 137.266 60.7658 137.467 60.7658C137.55 60.7658 137.586 51.8115 137.586 35.7412V10.7166H131.063C127.481 10.7166 124.54 10.7404 124.54 10.7641C124.54 10.7878 124.03 12.294 123.401 14.1086L122.439 16.9067L122.437 16.9128L122.436 16.9155L122.433 16.9247L122.427 16.941C120.789 21.7055 119.746 24.7358 119.606 25.1858C119.239 26.2532 119.049 26.7276 118.966 26.7276C118.812 26.7276 118.646 26.2414 116.001 18.3663L113.439 10.7759L106.975 10.7404C103.417 10.7285 100.464 10.7522 100.429 10.7997ZM71.5069 11.3668C71.9972 11.0069 72.7475 11.0009 77.5426 10.9632L78.6419 10.9544C89.387 10.8596 96.8826 10.8833 97.013 11.0137C97.2384 11.2509 97.6179 12.769 97.6179 13.4332C97.6179 15.8763 95.4712 18.2246 92.6723 18.8532C91.9607 19.0074 91.4507 19.0311 90.3358 18.9837C88.7229 18.9006 87.5013 18.6041 86.0544 17.9518C84.3821 17.1928 83.6705 16.837 82.6269 16.244C81.9864 15.8763 81.4408 15.5798 81.429 15.5798C81.4171 15.5798 80.6225 15.1292 79.6737 14.5836C77.4203 13.2909 75.2262 12.3895 74.1351 12.2946C73.3405 12.2234 73.3049 12.2353 72.961 12.5911C72.6526 12.8995 72.5933 13.0418 72.5933 13.5281C72.5933 14.9157 73.6844 16.1254 75.9734 17.2639C77.0289 17.7976 79.2823 18.6397 82.615 19.7308C88.2841 21.6047 91.7353 23.3363 94.4157 25.6964C96.0405 27.1077 96.9774 28.3175 97.6653 29.883C98.3058 31.3536 98.4955 32.255 98.4955 33.9628C98.4955 35.3979 98.4837 35.4928 98.0093 36.8448C97.5111 38.268 96.4793 40.1893 95.9338 40.6874L95.6491 40.9602L94.6529 40.5926C93.3008 40.1063 91.8183 39.6675 90.6798 39.4184C90.1579 39.2998 89.2803 39.0982 88.7229 38.9559C86.1018 38.2799 80.9902 37.3548 78.1675 37.0346C75.5702 36.7499 74.9416 36.6906 73.2219 36.6195C72.2256 36.572 71.3006 36.4771 71.1582 36.406C70.7906 36.2162 70.2332 35.1607 70.1027 34.4135C69.9841 33.6426 70.1501 32.1364 70.4585 31.3299C70.9566 30.0134 72.0003 28.78 73.2812 27.9854C74.0046 27.5347 73.9928 27.4635 72.8542 26.491C72.1663 25.9099 70.7906 24.2258 70.2687 23.3481C69.7232 22.4112 69.5334 21.9961 69.1302 20.7982C68.7744 19.7308 68.7507 19.5766 68.7507 17.8332C68.7388 16.3507 68.7862 15.8526 68.9641 15.2833C69.3911 13.8957 70.1857 12.5911 71.0989 11.7372C71.1491 11.6906 71.1944 11.647 71.2368 11.6061C71.334 11.5126 71.416 11.4336 71.5069 11.3668ZM78.1556 30.3455C77.3373 29.8 76.602 29.2781 76.519 29.1714C76.3173 28.9342 76.2225 28.9342 75.9734 29.1832C75.8074 29.3493 75.7836 29.539 75.8192 30.1795C75.9734 32.338 77.8591 34.3068 80.3735 34.9591C82.2118 35.4335 82.9233 35.5283 83.5163 35.386C84.1805 35.22 84.4533 34.9235 84.4533 34.3661C84.4533 33.7375 84.0145 33.2394 83.0894 32.848C80.7293 31.8517 79.5077 31.235 78.1556 30.3455ZM36.8947 46.6407C34.7718 47.4947 31.4273 49.1432 30.3717 49.8429C30.0159 50.092 29.0671 50.6731 28.2844 51.1475L26.8374 52.0015L26.3512 53.3891C26.0784 54.1481 24.6671 58.1805 23.2201 62.3434C21.7614 66.5062 20.5161 69.9219 20.4568 69.9338C20.3856 69.9456 16.875 59.8528 16.626 58.8921C16.6141 58.8803 16.4837 58.8684 16.3295 58.8684C16.116 58.8684 15.9144 59.0344 15.5942 59.4733C14.6572 60.7541 12.8664 61.9401 11.0992 62.4501C10.352 62.6636 9.86578 62.7229 8.78652 62.711C7.54122 62.711 7.31588 62.6755 6.17732 62.2841C5.48944 62.0469 4.83714 61.8215 4.7304 61.7741C4.52878 61.6911 4.51692 62.4501 4.51692 76.6465V91.602L7.32774 91.5783L10.1386 91.5427L10.2334 91.1869C10.3995 90.6176 10.3758 88.886 10.1741 87.961C9.93694 86.8461 9.48626 85.8499 8.2291 83.6321C8.12834 83.4542 8.03178 83.2842 7.93926 83.1214L7.93925 83.1214C7.07174 81.5945 6.55831 80.6908 6.2507 79.7217C5.80466 78.3166 5.79139 76.7741 5.75887 72.9949C5.75624 72.6893 5.75348 72.369 5.75036 72.033L5.70292 66.1623L6.34336 68.0006C6.69916 69.0087 8.65606 74.7252 10.6841 80.6908C12.724 86.6564 14.4556 91.6257 14.5505 91.7206L14.5663 91.7369C14.6204 91.7932 14.6664 91.8409 14.717 91.8467C14.9984 91.8786 15.4265 90.617 18.2312 82.3509L18.4524 81.6989C18.8637 80.4894 19.2904 79.2324 19.6912 78.0517C20.4576 75.7938 21.1293 73.8151 21.4174 72.9818C21.7333 72.043 22.3346 70.2801 22.9191 68.5667C23.1248 67.9638 23.3283 67.3671 23.5166 66.8146C24.0431 65.2439 24.6215 63.5435 24.9925 62.4528L24.9929 62.4517L24.9929 62.4517C25.1232 62.0687 25.2278 61.761 25.2956 61.5606C25.5566 60.8016 25.8175 60.1967 25.8768 60.2442C25.9361 60.2797 25.9835 66.6011 25.9835 75.7807V91.2462L30.4073 91.258C32.8267 91.258 35.7324 91.2818 36.8473 91.2936L38.8872 91.3292L38.9583 83.7269C39.0769 70.3014 39.2193 46.1189 39.1718 45.9647C39.1007 45.7512 39.0295 45.775 36.8947 46.6407ZM111.553 52.6302C112.36 52.227 112.834 52.0728 113.451 52.0016C114.542 51.883 115.313 51.9542 116.179 52.2507C119.25 53.3062 121.456 56.7219 121.456 60.4222C121.456 61.7268 121.148 63.1263 120.685 63.9209C120.27 64.6325 119.298 65.6643 118.634 66.0913C117.044 67.1113 114.447 67.0401 112.312 65.9134C111.375 65.4153 109.917 64.1225 109.371 63.2924L109.003 62.7468V63.5058C109.003 65.7711 110.13 68.321 111.814 69.8984C113.309 71.2978 114.779 72.1518 118.539 73.824C121.136 74.9744 122.334 75.947 123.413 77.7378C124.54 79.6473 125.097 81.8414 124.979 83.9524C124.86 86.111 124.22 87.7002 122.915 89.1115C122.026 90.0722 121.124 90.7008 119.986 91.1396C116.309 92.5628 112.004 91.0566 109.668 87.5342C108.493 85.767 108.173 84.6759 108.102 82.1734C108.078 81.2602 108.031 75.2828 108.007 68.8903C107.96 57.5521 107.972 57.2556 108.197 56.4966C108.778 54.6108 109.691 53.5553 111.553 52.6302ZM126.841 60.2323C125.275 60.5763 124.16 61.3946 123.65 62.5925L123.33 63.3515L123.71 64.1699C123.923 64.6087 126.865 70.8352 130.245 78.0105C133.625 85.1739 136.495 91.1157 136.602 91.1988C136.768 91.3292 137.788 91.3529 141.642 91.3648H146.457L146.813 91.0683C147.027 90.8904 147.335 90.3923 147.584 89.7874C154.024 74.5236 156.609 68.2497 156.515 68.1548C156.491 68.1311 155.174 68.0955 153.585 68.0718C151.011 68.0362 150.537 68.0006 149.268 67.7279C147.335 67.3128 145.971 66.8977 145.07 66.4707C144.204 66.0675 144.085 66.0912 143.86 66.7909C143.777 67.0281 142.887 69.2341 141.891 71.6772C140.883 74.1204 139.519 77.4293 138.867 79.0304C137.467 82.458 136.317 85.0553 136.068 85.3399C135.736 85.7195 135.499 85.589 135.167 84.8537C134.04 82.3275 133.874 78.8051 134.562 72.0449C134.953 68.2734 134.668 65.8303 133.589 63.6836C133.055 62.6281 131.525 61.0625 130.589 60.6237C129.426 60.0663 128.169 59.9358 126.841 60.2323ZM176.783 64.3008C179.049 63.4587 182.856 61.6085 184.018 60.7902C184.48 60.4581 184.884 60.1853 184.919 60.1853C185.228 60.1379 185.251 60.7783 185.263 68.5111C185.263 75.3661 185.239 76.5996 185.085 76.9672C184.955 77.2993 184.86 77.3823 184.646 77.3468C184.421 77.323 184.338 77.1689 184.16 76.481C184.042 76.0184 183.816 75.3661 183.65 75.0103C183.283 74.2039 182.251 72.6502 181.527 71.8319C179.547 69.5785 174.909 67.5623 171.743 67.586H170.616L170.581 71.144C170.557 73.1009 170.581 75.461 170.616 76.3861L170.699 78.0821H171.138C172.158 78.0821 174.02 76.398 174.921 74.6783C175.431 73.682 175.894 72.2351 175.894 71.5947C175.894 71.0728 176.273 70.6696 176.605 70.8475C176.843 70.9779 176.843 71.0965 176.819 78.4735L176.783 85.969L176.522 86.0045C176.309 86.0401 176.25 85.969 176.19 85.5894C176.06 84.7474 175.419 83.1344 174.862 82.1856C174.198 81.0826 172.846 79.6476 172.134 79.2799C171.861 79.1495 171.423 79.0309 171.15 79.0309H170.675V84.5339C170.675 89.183 170.699 90.0488 170.841 90.1793C171.067 90.3572 173.095 89.9776 174.625 89.4558C179.831 87.7242 183.603 83.7986 184.243 79.4815C184.362 78.6988 184.469 78.3549 184.623 78.2363C184.872 78.0584 184.907 78.0465 185.121 78.1888C185.251 78.26 185.275 79.5053 185.263 84.6644C185.263 88.1749 185.228 91.0925 185.192 91.1399C185.156 91.1992 178.942 91.2467 171.375 91.2467H157.629V79.9441C157.629 73.7413 157.665 68.5466 157.701 68.4043C157.76 68.179 157.878 68.1434 159.207 68.0722C160.001 68.0248 162.148 67.7876 163.975 67.5267C168.493 66.8981 172.478 65.89 176.783 64.3008Z" fill="white"/>
</svg>
