<svg width="44" height="54" viewBox="0 0 44 54" xmlns="http://www.w3.org/2000/svg" xmlns:xlink="http://www.w3.org/1999/xlink">
    <defs>
        <path d="M370.94 278.313c1.893-2.283 3.164-5.455 2.816-8.623-2.716.106-6.019 1.814-7.962 4.088-1.745 2.026-3.274 5.253-2.869 8.35 3.033.236 6.132-1.536 8.015-3.815M385 309.279c-.067.184-1.138 3.873-3.746 7.67-2.246 3.292-4.588 6.573-8.272 6.638-3.612.07-4.776-2.14-8.913-2.14-4.135 0-5.427 2.075-8.851 2.21-3.558.14-6.256-3.555-8.531-6.83-4.646-6.7-8.185-18.939-3.431-27.192 2.37-4.103 6.592-6.695 11.182-6.765 3.496-.058 6.786 2.344 8.92 2.344 2.135 0 6.133-2.905 10.344-2.478 1.755.08 6.703.71 9.885 5.354-.263.166-5.905 3.441-5.844 10.272.07 8.166 7.174 10.884 7.257 10.917" id="sex98vf4ya"/>
    </defs>
    <use fill="#FFF" xlink:href="#sex98vf4ya" transform="translate(-341 -269.69)" fill-rule="evenodd"/>
</svg>
