<svg width="45" height="45" viewBox="0 0 45 45" xmlns="http://www.w3.org/2000/svg">
    <path d="M43.714 17.263c-1.15.733-2.597 2.108-4.096 3.85-.224-1.97-.467-4.019-.617-6.36-.344-5.475-.365-10.045.542-12.384.537-1.394.022-1.667-.907-1.265-3.883 1.659-9.575 6.492-9.69 14.257-.038 2.711.601 5.119 1.628 7.078-1.376 1.201-3.046 1.019-4.34 1.266-.635-2.118-1.199-4.588-3.388-5.789-3.6-2.667-8.247.007-11.858 2.409-.198-1.73-.398-3.538-.528-5.573-.344-5.474-.367-10.044.54-12.383.538-1.394.023-1.667-.907-1.265C6.211 2.763.518 7.596.405 15.36c-.083 5.806 2.913 10.24 6.27 11.791-.1.168-.211.331-.316.494-2.462 4.081-3.124 6.241-3.762 8.676-.923 3.563-.64 7.377 1.649 7.86 3.128.664 6.346-4.863 7.057-10.19.58-4.402.341-7.774-.04-11.278.042-.055.1-.13.14-.178.325-.4.633-.813.925-1.238 1.441-1.37 3.073-2.208 4.589-2.887 1.765-.425 3.601-.07 4.942 1.059.634.777 1.553 1.693 1.198 2.682-1.411-.353-2.539-1.27-4.093-1.2-1.483-.142-2.965.072-3.74 1.413-.495 1.058.351 2.045 1.057 2.822 1.978 2.26 7.906-1.128 8.259 2.895.989-.354.918-1.766 1.342-2.684 1.75-.686 3.391-.932 5.689-1.356 1.047 1.424 2.316 2.496 3.645 3.11-.099.168-.209.332-.315.494-2.463 4.082-3.123 6.242-3.761 8.676-.923 3.564-.639 7.377 1.65 7.86 3.125.664 6.344-4.863 7.055-10.19.58-4.402.342-7.774-.04-11.278.04-.055.098-.13.14-.178 1.41-1.747 3.358-3.501 4.028-4.195.524-.556.709-1.696-.26-1.078zM9.212 36.303c-.516 5.37-2.978 5.852-4.051 5.456-1.264-.469-1.607-4.355.342-9.28.93-2.355 2.105-4.46 3.191-6.163.444 3.663.786 7.193.518 9.987zM9.84 3.057c-.711 1.624-2.132 4.69-2.306 9.83-.12 3.377.422 7.498.93 11.566-.424.6-.837 1.22-1.249 1.848-2.385-1.662-3.572-5.189-3.737-10.63-.26-8.144 3.707-12.132 5.89-13.163.532-.254.812-.223.472.549zm12.653 21.495c-.987.352-2.682.14-3.67-.494-.282-.282-1.059-.848-.564-1.413 1.623-.918 3.035.071 4.234 1.413v.494zm15.26 11.75c-.515 5.371-2.976 5.853-4.049 5.457-1.266-.469-1.608-4.355.34-9.28.932-2.355 2.105-4.46 3.193-6.163.443 3.663.786 7.193.517 9.987zm.628-33.245c-.712 1.624-2.13 4.69-2.306 9.83-.118 3.377.423 7.498.932 11.566a56.424 56.424 0 0 0-1.25 1.848c-2.384-1.662-3.572-5.189-3.737-10.63-.259-8.144 3.707-12.132 5.89-13.163.533-.254.812-.223.47.549z" fill="#FFF" fill-rule="nonzero"/>
</svg>
