<svg width="50" height="54" viewBox="0 0 1206 514" version="1.1" xmlns="http://www.w3.org/2000/svg" xmlns:xlink="http://www.w3.org/1999/xlink">
    <title>J&amp;J</title>
    <g id="Page-1" stroke="none" stroke-width="1" fill="none" fill-rule="evenodd">
        <g id="J&amp;J" transform="translate(0.297800, 0.797400)" fill="#FFFFFF" fill-rule="nonzero">
            <path d="M583.063,0 C486.455,0 438.901,53.96 438.901,121.063 C438.901,157.452 454.276,193.913 494.947,237.916 L495.61,239.382 C427.08,272.33 395.561,325.484 395.561,380.103 C395.561,452.185 450.838,512.406 536.282,512.406 C585.263,512.406 642.664,492.087 694.501,455.7 L736.491,501.24 L846.389,501.24 L846.389,497.725 L756.84,398.994 C794.656,354.221 816.328,305.241 816.328,262.446 C816.328,209.291 780.599,173.561 724.661,173.561 C695.265,173.561 662.318,181.987 640.646,190.401 L639.179,187.62 C692.406,158.882 714.812,132.342 714.812,95.185 C714.674,42.029 667.074,0 583.059,0 M578.853,203.651 L548.761,170.044 C522.11,140.648 514.496,122.417 514.496,100.709 C514.496,60.147 540.378,37.011 580.939,37.011 C622.306,37.011 646.724,60.807 646.724,104.26 C646.724,144.163 627.139,181.979 578.853,203.651 M734.985,375.153 L597.779,223.926 C619.359,215.248 642.391,210.741 665.65,210.643 C722.394,210.643 757.317016,243.59 757.317016,300.332 C757.326,326.918 749.568,352.928 734.985,375.159 M580.976,461.255 C513.764,461.255 472.506,406.673 472.506,348.613 C472.506,312.224 488.65,278.619 515.191,259.728 L673.411,432.628 C643.98,450.091 611.068,461.255 580.976,461.255 M1205.405,11.16 L1118.607,11.16 L1118.607,373.031 C1118.607,431.824 1096.166,466.748 1042.975,466.748 C990.48,466.748 967.38,429.626 967.38,365.964 L967.38,298.716 L880.582,320.388 L880.582,350.444 C880.582,442.111 926.122,512.178 1042.975,512.178 C1159.865,512.178 1205.405,442.184 1205.405,350.444 L1205.405,11.16 M324.786,11.16 L238.025,11.16 L238.025,373.031 C238.025,431.824 215.584,466.748 162.393,466.748 C109.897,466.748 86.797,429.626 86.797,365.964 L86.797,298.716 L0,320.425 L0,350.48 C0,442.146 45.54,512.214 162.393,512.214 C279.282,512.214 324.822,442.22 324.822,350.48 L324.822,11.16" id="Fill-1"></path>
        </g>
    </g>
</svg>