<?xml version="1.0" encoding="UTF-8"?>
<svg width="88px" height="32px" viewBox="0 0 88 32" version="1.1" xmlns="http://www.w3.org/2000/svg" xmlns:xlink="http://www.w3.org/1999/xlink">
    <title>nike-11</title>
    <g id="Desktop" stroke="none" stroke-width="1" fill="none" fill-rule="evenodd">
        <g id="Agency-Pattern" transform="translate(-1255.000000, -3366.000000)" fill="#FFFFFF" fill-rule="nonzero">
            <g id="nike-11" transform="translate(1255.000000, 3366.000000)">
                <path d="M14.2924502,0.0303533197 C9.15553174,5.89915767 2.0420957,12.4695751 0.334722384,20.6682375 C-2.35658502,33.5916216 13.3639938,33.2429436 20.9943652,30.0886243 C43.4523348,20.8054112 65.6650136,10.939041 88,1.36431685 C66.2833089,7.14872221 44.644327,13.2338285 22.8492509,18.7173978 C7.25706128,22.6407007 10.2914381,8.72331408 14.2924502,0.0303533197 L14.2924502,0.0303533197 Z" id="Path"></path>
                <path d="M14.3140737,0.00798657389 C14.3010647,-0.00342665265 14.2813572,-0.00250099478 14.2694753,0.0100813446 C13.9464752,0.377679825 14.0552681,0.254358644 13.9464752,0.377477106 C13.8647115,0.470120032 13.7815964,0.561749359 13.6991571,0.654121992 C13.3944017,0.997596822 13.0869434,1.33992291 12.7788094,1.68042451 C11.8490015,2.70672704 10.9110848,3.7255965 9.98533125,4.7550074 C7.80676967,7.17588666 5.67956375,9.66460946 3.90346844,12.4013261 C2.52112247,14.5312349 1.35534875,16.8192652 0.651505781,19.2660926 C0.530908248,19.6846958 0.424554293,20.1072719 0.332627614,20.533091 C-0.134911704,22.7082739 -0.213161528,25.0780678 0.784557511,27.1235101 C0.942070757,27.4465102 1.12546456,27.7586986 1.3314954,28.053318 C1.6596311,28.5216006 2.04574465,28.9473121 2.47598353,29.3243709 C3.11880786,29.887256 3.85576173,30.3379696 4.63204323,30.6927292 C5.82302176,31.2366938 7.10603506,31.5610454 8.39925192,31.7461961 C10.3090071,32.0198678 12.2578197,32.0029745 14.1721698,31.7928217 C16.0642208,31.5853718 17.9447844,31.1914198 19.7496659,30.5825848 C20.5031076,30.3285094 21.2342502,30.0169967 21.9687714,29.712917 C22.8168157,29.3615361 23.6641843,29.0101552 24.5108771,28.6567471 C27.4320687,27.4397529 30.3478544,26.2139741 33.261613,24.9807623 C44.2469963,20.3290198 55.1911599,15.579296 66.133972,10.830248 C71.6493007,8.43666836 77.1626021,6.03815584 82.6853639,3.66329397 C84.0226385,3.08831318 85.3605888,2.5150893 86.6978635,1.94017609 C87.0174849,1.80266452 87.3364307,1.66373392 87.6560522,1.52622236 C87.7432216,1.48878678 87.8310669,1.45182421 87.9182364,1.41432106 C87.9290481,1.40952336 87.9891883,1.38688632 87.990078,1.38053443 C87.9918912,1.36803338 87.9790523,1.36979028 87.9709435,1.36789823 C87.9716192,1.36533045 87.9662134,1.364452 87.9689163,1.36154635 C87.969592,1.3603976 87.9662134,1.36296539 87.9648619,1.36364112 C87.9459414,1.36431685 87.9236422,1.3710066 87.9121548,1.37418255 C87.8553932,1.38931895 87.7993074,1.40344176 87.7432216,1.41857817 C87.4600897,1.49405749 87.1769578,1.56899623 86.8938259,1.64447555 C86.1586289,1.84084341 85.4241077,2.03869789 84.6895865,2.23574148 C82.5414375,2.81129188 80.3937337,3.38850276 78.2464771,3.96737359 C71.8047191,5.70576303 65.3676913,7.46077548 58.9272849,9.20430048 C47.6006567,12.270234 36.2679469,15.3211662 24.8913145,18.1977595 C24.2101761,18.3700713 23.5303892,18.5430588 22.8492509,18.7133434 C22.2721753,18.8572744 21.6903696,18.987015 21.1051853,19.0931051 C20.6486132,19.1765417 20.1892908,19.2441554 19.7280425,19.2958248 C19.3719314,19.335693 19.0158204,19.3640738 18.6576822,19.3802914 C19.7483144,19.3329901 20.8335408,19.1728415 21.899171,18.9430924 C22.389077,18.8376782 22.874253,18.7153706 23.3601046,18.593063 C23.8709584,18.4639981 24.3824879,18.3356089 24.8933417,18.206544 C27.7307425,17.4895918 30.5640888,16.7564221 33.3967595,16.0225766 C43.0854121,13.5129061 52.7456839,10.8998485 62.40528,8.2814526 C68.0821088,6.74260698 73.760289,5.20254503 79.4398207,3.67167305 C81.3332231,3.16142744 83.2266256,2.65442534 85.1200281,2.14708538 C85.7700827,1.97294911 86.4208131,1.79901557 87.0715435,1.62548746 L87.6648367,1.46716334 C87.7202467,1.45222965 87.7756568,1.4377014 87.8317426,1.42276771 C87.8283639,1.42425432 87.8243095,1.42553822 87.8209309,1.42702483 C87.7337614,1.46446041 87.6465919,1.50142298 87.5594224,1.53892613 C87.2681817,1.6638015 86.9776167,1.78989318 86.6870517,1.91476855 C85.5241161,2.41440516 84.3611805,2.91235244 83.1982448,3.41198905 C78.5762345,5.39796687 73.9603058,7.40191918 69.3437014,9.40310098 C57.8474643,14.3859524 46.3586603,19.3890759 34.8185007,24.2712432 C31.437811,25.7010932 28.0557698,27.126213 24.667647,28.5364668 C23.7621655,28.9135255 22.8560082,29.29126 21.9498509,29.6662915 C21.3011477,29.9345573 20.6551474,30.2102562 19.9922539,30.4433839 C18.6772784,30.9055849 17.3150017,31.2475056 15.9419132,31.4846877 C15.0418376,31.6401061 14.1356803,31.7570079 13.2241171,31.8245811 C12.5173009,31.8766125 11.8071061,31.8975602 11.0975869,31.8921544 C10.5286202,31.8874242 9.95830195,31.8610707 9.39203811,31.8076878 C9.01227645,31.771874 8.63454198,31.7279514 8.25775354,31.6705141 C5.87086362,31.3062943 3.388763,30.4244634 1.77916818,28.538494 C1.52238983,28.237793 1.29162718,27.9141171 1.09073191,27.5735479 C0.79868032,27.078236 0.572715371,26.5450831 0.408715093,25.9943611 C0.147679628,25.117936 0.0461170331,24.1996156 0.0581450716,23.286701 C0.0777413141,21.8014409 0.384253577,20.3249654 0.820438906,18.9093058 C1.51671368,16.6503321 2.6036294,14.528532 3.88022325,12.5452571 C5.83518495,9.50783952 8.22531838,6.77862352 10.6482248,4.11089918 C11.4570766,3.22014859 12.2733615,2.33358755 13.0788346,1.43966102 C13.3160167,1.17632807 13.2234414,1.27789066 14.2505548,0.124077418 C14.2505548,0.123604405 14.252582,0.122523233 14.252582,0.121982647 C14.3086678,0.059071951 14.252582,0.121712354 14.3161009,0.0502198552 C14.3216535,0.0444570284 14.3245835,0.0366592355 14.3241999,0.0286658091 C14.3238162,0.0206723827 14.3201527,0.0131910778 14.3140737,0.00798657389 L14.3140737,0.00798657389 Z M18.6576822,19.3802914 C17.6630039,19.4248897 16.6237273,19.3694796 15.6466181,19.1248645 C16.4203319,19.3194754 17.2217506,19.3998876 18.0177635,19.4012391 C18.231295,19.4019148 18.4441507,19.3897516 18.6576822,19.3802914 Z M14.1998749,0.236046293 C14.1580989,0.327390176 14.1166537,0.418884955 14.0755401,0.510528835 C14.0174271,0.639188303 13.9626928,0.769739823 13.906607,0.899075023 C13.9363392,0.829812442 14.02013,0.639255877 14.1998749,0.236046293 Z M13.906607,0.899075023 C13.8951195,0.924482566 13.8207889,1.09071276 13.7984898,1.14193328 C13.7883538,1.16693539 13.7795692,1.19295109 13.7694333,1.21795319 C13.8147073,1.11166047 13.8606571,1.00509745 13.906607,0.899075023 Z M13.7694333,1.21795319 C13.7491613,1.26457873 13.7275378,1.31066369 13.7079416,1.35728923 C13.4667051,1.92618843 13.2416862,2.50116921 13.0261275,3.08040711 C13.2593878,2.45389669 13.5072237,1.83290998 13.7694333,1.21795319 Z M13.0261275,3.08040711 C13.0119371,3.11743725 12.9950438,3.15325107 12.9815292,3.19028122 C12.9092258,3.38637879 12.8423283,3.58423326 12.7727278,3.78154715 C12.8548628,3.54699773 12.9393336,3.31327277 13.0261275,3.08040711 Z M12.7727278,3.78154715 C12.7173178,3.93723592 12.658529,4.09191109 12.6058219,4.24820802 C12.592983,4.28463 12.5821713,4.321525 12.5700081,4.35801455 C12.6348784,4.16468748 12.7044788,3.97372548 12.7727278,3.78154715 Z M12.5700081,4.35801455 C12.5254097,4.48957967 12.4862172,4.62290169 12.4429704,4.7550074 C12.4862172,4.62283412 12.5254097,4.48964724 12.5700081,4.35801455 Z M12.4429704,4.7550074 C12.3524222,5.03367948 12.2632255,5.31248671 12.1787589,5.59332114 C12.2625498,5.312757 12.3524222,5.03340919 12.4429704,4.7550074 Z M12.1787589,5.59332114 C12.1395665,5.72671073 12.1030769,5.86070849 12.0652359,5.9945711 C12.1030769,5.86084363 12.1395665,5.72650801 12.1787589,5.59332114 Z M12.0652359,5.9945711 C12.00442,6.20627809 11.9409011,6.4171742 11.885491,6.63016509 C11.8685977,6.69544085 11.8537316,6.76112205 11.8368383,6.82653295 C11.9084659,6.54765815 11.9861752,6.27148628 12.0652359,5.9945711 L12.0652359,5.9945711 Z M11.8483173,6.82653295 C11.8132028,6.94863782 11.7819051,7.07155356 11.7483173,7.19399629 C11.7819051,7.07135084 11.8132028,6.94877296 11.8483173,6.82653295 Z M11.5645379,8.12522325 C11.5525379,8.16542933 11.5365379,8.20529755 11.5245379,8.24557121 C11.5125379,8.28408796 11.5045379,8.3231453 11.4935379,8.36172962 C11.5165379,8.28280407 11.5405379,8.20394608 11.5645379,8.12522325 Z M11.2316455,10.1018084 C11.2076455,10.2329005 11.1916455,10.3646683 11.1716455,10.4964362 C11.1916455,10.3653441 11.2076455,10.2329005 11.2316455,10.1018084 Z M11.1969384,10.4964362 C11.1749384,10.6457731 11.1429384,10.7944342 11.1259384,10.9444468 C11.1139384,11.045131 11.1099384,11.1451394 11.1009384,11.2464992 C11.1219384,10.9958025 11.1599384,10.7464572 11.1969384,10.4964362 Z M11.1199032,11.3160997 C11.0939032,11.6343697 11.0789032,11.9533154 11.0829032,12.2722612 C11.0789032,11.9533154 11.0949032,11.6350454 11.1199032,11.3160997 Z M11.0725848,12.3107779 C11.0784101,12.7054057 11.1114198,13.1007092 11.1725848,13.4933098 C11.1123907,13.098682 11.0784101,12.7020271 11.0725848,12.3107779 Z M11.1590786,13.6385923 C11.1798193,13.7946865 11.1975971,13.9507807 11.226486,14.1055235 C11.2346342,14.1494461 11.249449,14.1920172 11.2590786,14.2366156 C11.2190786,14.0379502 11.1857453,13.8392849 11.1590786,13.6385923 L11.1590786,13.6385923 Z M11.2503025,14.2366156 C11.2949008,14.4798793 11.3530138,14.72044 11.4192356,14.9582979 C11.3523381,14.7197643 11.2949008,14.4798793 11.2503025,14.2366156 Z M11.4192356,14.9582979 C11.4522545,15.0461431 11.4805564,15.1339883 11.5192356,15.2204821 C11.4814998,15.1339883 11.4522545,15.0461431 11.4192356,14.9582979 Z M11.6827713,15.7522836 C11.7157902,15.8103966 11.7478656,15.8685096 11.7827713,15.9259468 C11.7478656,15.8685096 11.7157902,15.8103966 11.6827713,15.7522836 Z M11.7543989,15.9259468 C11.8165663,16.0671749 11.885491,16.2050243 11.9571187,16.3415223 C11.8845419,16.2054943 11.8169242,16.066878 11.7543989,15.9259468 L11.7543989,15.9259468 Z M11.9640904,16.3415223 C11.9840904,16.3742496 12.0010904,16.408795 12.0210904,16.4415223 C12.0010904,16.408795 11.9840904,16.3751587 11.9640904,16.3415223 Z M11.9956354,16.4158529 C12.0888865,16.5868132 12.1909221,16.7550706 12.3017423,16.9158949 C12.1895707,16.7537191 12.0895623,16.5868132 11.9956354,16.4158529 Z M12.3017423,16.9158949 C12.4983804,17.2024055 12.7206964,17.471347 12.9754476,17.7166379 C13.1585711,17.8930041 13.3592636,18.0484226 13.5667135,18.1957323 C13.3619666,18.0504498 13.1633012,17.8909769 12.9774748,17.7119078 C12.7259595,17.4700401 12.4995623,17.2033442 12.3017423,16.9158949 L12.3017423,16.9158949 Z M13.5836068,18.2085712 C13.6626675,18.2639813 13.739701,18.3234457 13.8221404,18.3754771 C13.9106614,18.4308872 14.0072911,18.4707554 14.098515,18.5207596 C13.9228245,18.4241299 13.7484855,18.3247972 13.5836068,18.2085712 L13.5836068,18.2085712 Z M14.098515,18.5207596 C14.174197,18.562655 14.2492033,18.6052262 14.3269126,18.6430672 C14.2492033,18.6052262 14.174197,18.562655 14.098515,18.5207596 Z M15.0235928,18.9349836 C15.1168439,18.9674188 15.207392,19.0093142 15.3019946,19.0383707 C15.4060574,19.0694544 15.5121474,19.0917536 15.6168859,19.1187829 C15.4161934,19.0674272 15.2182037,19.0032326 15.0235928,18.9349836 Z" id="Shape"></path>
            </g>
        </g>
    </g>
</svg>