<svg width="88" height="49" viewBox="0 0 88 49" xmlns="http://www.w3.org/2000/svg">
    <path d="M43.716.002c3.81-.047 7.577.803 10.999 2.484a.245.245 0 0 1 .112.33l-.134.255a8.623 8.623 0 0 1-8.663 4.4c-.675-.08-1.354-.12-2.033-.12-7.688 0-14.43 5.142-16.483 12.569l-.026.092-.099.378-.005.02-.105.462-.013.048-.023.109-.003.032-.066.338-.058.338-.047.294a17.078 17.078 0 0 0 1.574 9.985.245.245 0 0 1-.22.355c-2.993.01-6.488-1.79-8.37-5.71a4.967 4.967 0 0 1-.372-1.118l-.094.052c-4.863 2.739-7.588 5.384-7.063 7.35.526 1.964 4.196 2.89 9.775 2.821l1.038-.028a70.504 70.504 0 0 0 7.234-.624h.025l.002.003a123.338 123.338 0 0 0 15.395-3.148 122.803 122.803 0 0 0 14.931-5.002 70.114 70.114 0 0 0 7.483-3.574c4.863-2.739 7.583-5.404 7.062-7.349-.52-1.945-4.13-2.876-9.623-2.824a.244.244 0 0 1-.22-.13 24.234 24.234 0 0 0-1.168-1.989.196.196 0 0 1 .137-.301c13.181-1.872 22.475-1.338 23.34 1.896.87 3.26-7.038 8.436-19.547 13.448-2.466.997-5.108 1.98-7.899 2.94a214.035 214.035 0 0 1-14.107 4.301 215.552 215.552 0 0 1-14.36 3.346l.022-.003c6.567 6.486 17.09 6.565 23.754.177a8.83 8.83 0 0 1 9.833-1.56.245.245 0 0 1 .115.335A24.43 24.43 0 0 1 44.049 49a24.423 24.423 0 0 1-20.34-10.847C10.36 40.077.942 39.56.065 36.3c-.877-3.26 7.033-8.436 19.55-13.458.848-12.616 11.349-22.696 24.1-22.84z" fill="#000" fill-rule="nonzero"/>
</svg>
