<svg width="36" height="45" viewBox="0 0 36 45" xmlns="http://www.w3.org/2000/svg" xmlns:xlink="http://www.w3.org/1999/xlink">
    <defs>
        <path d="M1152.497 34.745c1.549-1.868 2.588-4.463 2.304-7.055-2.223.087-4.925 1.484-6.515 3.345-1.428 1.657-2.679 4.297-2.347 6.832 2.481.192 5.016-1.257 6.558-3.122M1164 60.081c-.055.15-.931 3.169-3.065 6.276-1.837 2.693-3.753 5.377-6.768 5.43-2.955.058-3.908-1.75-7.292-1.75s-4.44 1.697-7.242 1.808c-2.911.114-5.119-2.909-6.98-5.589-3.8-5.482-6.697-15.495-2.807-22.247 1.94-3.357 5.394-5.478 9.149-5.536 2.86-.047 5.552 1.918 7.298 1.918 1.747 0 5.018-2.376 8.463-2.027 1.436.065 5.485.581 8.088 4.38-.215.136-4.832 2.816-4.781 8.404.057 6.682 5.869 8.906 5.937 8.933" id="nu7fywbgla"/>
    </defs>
    <use fill="#92A7F4" xlink:href="#nu7fywbgla" transform="translate(-1128 -27.69)" fill-rule="evenodd"/>
</svg>
