<svg width="29" height="18" viewBox="0 0 29 18" xmlns="http://www.w3.org/2000/svg">
    <path d="M11.93 8.136c.602-.302 1.058-.636 1.368-1 .554-.651.829-1.515.829-2.585 0-1.041-.275-1.934-.822-2.68C12.393.654 10.846.03 8.66 0H0v17.557h8.075c.91 0 1.753-.077 2.532-.235.78-.16 1.454-.453 2.024-.882a4.884 4.884 0 0 0 1.269-1.382c.534-.825.8-1.759.8-2.8 0-1.008-.234-1.868-.698-2.572-.468-.707-1.158-1.223-2.071-1.55zM3.574 3.049h3.9c.858 0 1.564.091 2.12.273.641.265.962.804.962 1.624 0 .735-.244 1.25-.728 1.54-.488.291-1.12.436-1.896.436H3.573V3.05zm18.844 1.18c1.154 0 2.193.203 3.116.608.927.405 1.689 1.046 2.289 1.922.547.772.898 1.667 1.058 2.685.095.594.132 1.457.117 2.577H19.34c.058 1.302.515 2.215 1.388 2.738.528.326 1.164.49 1.91.49.787 0 1.43-.199 1.923-.595.27-.215.51-.513.714-.894h3.538c-.094.769-.523 1.552-1.283 2.348C26.343 17.368 24.68 18 22.545 18c-1.765 0-3.322-.53-4.667-1.597-1.352-1.064-2.024-2.798-2.024-5.197 0-2.25.609-3.976 1.825-5.177 1.219-1.198 2.796-1.8 4.738-1.8zM7.985 9.826c.767.008 1.366.107 1.792.298.762.342 1.14.969 1.14 1.884 0 1.08-.391 1.808-1.178 2.192-.431.206-1.038.31-1.816.31h-4.35V9.826h4.412zM26.21.818v2.185h-7.68V.818h7.68zm-6.784 8.963c.127-.845.435-1.515.925-2.01.489-.494 1.18-.742 2.067-.742.819 0 1.503.233 2.059.699.549.469.86 1.15.922 2.053h-5.973z" fill="#FFF" fill-rule="evenodd"/>
</svg>
