<svg width="30" height="27" viewBox="0 0 30 27" xmlns="http://www.w3.org/2000/svg">
    <path d="M6.603 8.659V27H.756V8.659h5.847zm15.976-.177c4.156 0 7.421 2.639 7.421 8.32V27h-6.63v-9.492c0-2.484-1.037-4.18-3.318-4.18-1.745 0-2.715 1.145-3.166 2.248-.17.395-.143.947-.143 1.499V27h-6.569s.085-16.813 0-18.341h6.569v2.878c.388-1.259 2.487-3.055 5.836-3.055zM3.572 0c2.157 0 3.484 1.37 3.526 3.18 0 1.777-1.369 3.184-3.567 3.184h-.042C1.373 6.364 0 4.963 0 3.184 0 1.374 1.413 0 3.572 0z" fill="#FFF" fill-rule="evenodd"/>
</svg>
