<svg width="22" height="16" viewBox="0 0 22 16" xmlns="http://www.w3.org/2000/svg">
    <path d="M10.388 5.572C3.845 1.155 3.41 2.002 3.41 2.014 2.896 3.164 4.887 4.62 4.887 4.62l-.567.016s-.838-.026-.654.572c.186.762 1.179 1.553 1.183 1.562.49.231 1.102.015 1.102.015s-.647.336-1.057.592c-.675.436-.19.824-.118.895.88.943 2.262.88 2.262.88s-.64.774-.645 1.065c0 .478.426.77.463.805.382.264.946.294.953.294C4.27 15.068 0 11.295 0 11.28c.478 2.75 4.522 5.402 11.633 4.374 5.772-.918 7.616-7.235 7.616-7.235s2.382.134 2.652-1.283c-.748.135-1.823-.084-1.823-.084s1.83-.796 1.922-1.748c-1.078.83-2.678.6-2.715.6-1.247-4.342-4.24-4.342-4.24-4.342s1.27-.72 1.233-1.157c-.389-.283-1.174.28-1.24.28.197-.141.08-.537-.177-.685-.379.035-.708.732-.708.732S13.967.39 13.798.39c-2.003.548-3.414 5.174-3.41 5.18" fill="#97A1C7" fill-rule="evenodd"/>
</svg>
