<svg width="22" height="22" viewBox="0 0 22 22" xmlns="http://www.w3.org/2000/svg">
    <path d="M18.652 18.413h-3.325V13.1c0-1.34-.48-2.25-1.681-2.25-.92 0-1.466.617-1.705 1.21-.089.212-.112.509-.112.802v5.55H8.507s.045-8.998 0-9.932h3.322v1.408c.443-.678 1.23-1.64 2.997-1.64 2.185 0 3.826 1.419 3.826 4.467v5.698zM5.009 7.126h-.024c-1.115 0-1.838-.767-1.838-1.718 0-.972.744-1.712 1.882-1.712 1.136 0 1.835.74 1.855 1.712 0 .955-.72 1.718-1.875 1.718zM3.345 18.413H6.67V8.48H3.345v9.933zM20.374 0H1.626C.726 0 0 .702 0 1.579V20.42c0 .87.726 1.576 1.626 1.576h18.748c.896 0 1.626-.706 1.626-1.576V1.58C22 .702 21.27 0 20.374 0z" fill="#97A1C7" fill-rule="evenodd"/>
</svg>
