<svg width="22" height="14" viewBox="0 0 22 14" xmlns="http://www.w3.org/2000/svg">
    <path d="M9.05 6.266c.457-.232.803-.489 1.038-.77.42-.501.629-1.167.629-1.991 0-.802-.209-1.489-.624-2.064C9.402.504 8.228.025 6.57 0H0v13.522h6.126c.69 0 1.33-.059 1.92-.181a3.752 3.752 0 0 0 2.498-1.743c.406-.636.608-1.355.608-2.157 0-.777-.178-1.438-.53-1.981-.355-.545-.878-.942-1.571-1.194zM2.71 2.348h2.96c.65 0 1.186.07 1.607.211.487.203.73.619.73 1.25 0 .567-.185.963-.552 1.187-.37.224-.85.336-1.439.336H2.71V2.348zm14.296.908c.875 0 1.663.157 2.364.47.703.311 1.281.806 1.736 1.48.415.594.682 1.284.803 2.067.072.459.1 1.122.089 1.986h-7.325c.043 1.002.39 1.705 1.052 2.109.401.25.884.376 1.45.376.596 0 1.084-.153 1.458-.458.206-.166.387-.395.542-.688h2.684c-.071.592-.397 1.195-.974 1.807-.9.972-2.161 1.458-3.782 1.458-1.34 0-2.52-.409-3.54-1.23-1.026-.82-1.536-2.155-1.536-4.002 0-1.733.462-3.062 1.384-3.987.925-.923 2.122-1.388 3.595-1.388zM6.058 7.57c.582.005 1.036.083 1.36.23.577.263.864.745.864 1.45 0 .832-.297 1.393-.893 1.689-.328.158-.788.238-1.378.238h-3.3V7.569h3.347zM19.884.63v1.683h-5.826V.63h5.826zm-5.147 6.903c.096-.651.33-1.167.701-1.548.371-.38.896-.57 1.569-.57.62 0 1.14.178 1.561.537.417.361.653.886.7 1.58h-4.531z" fill="#97A1C7" fill-rule="evenodd"/>
</svg>
