<svg width="29" height="29" viewBox="0 0 29 29" xmlns="http://www.w3.org/2000/svg">
    <path d="M27.859 8.856a14.533 14.533 0 0 0-7.714-7.715A14.51 14.51 0 0 0 14.501 0a14.551 14.551 0 0 0-5.646 1.14 14.51 14.51 0 0 0-4.61 3.109A14.583 14.583 0 0 0 1.14 8.856a14.444 14.444 0 0 0-.847 2.726 14.677 14.677 0 0 0 0 5.839c.19.932.476 1.849.847 2.723.362.86.814 1.692 1.337 2.466a14.75 14.75 0 0 0 1.769 2.144 14.558 14.558 0 0 0 4.61 3.105c.875.372 1.792.655 2.724.844.955.198 1.937.297 2.92.297.983 0 1.965-.099 2.92-.297.931-.189 1.848-.472 2.725-.843.86-.364 1.688-.814 2.463-1.337.768-.52 1.49-1.114 2.146-1.769a14.699 14.699 0 0 0 1.769-2.144c.523-.774.975-1.606 1.336-2.466.37-.874.657-1.791.848-2.723a14.655 14.655 0 0 0 0-5.839c-.19-.931-.478-1.85-.848-2.726zM14.5 2.116c3.134 0 5.997 1.171 8.178 3.093-.031.046-1.794 2.73-6.47 4.482a62.95 62.95 0 0 0-4.628-7.224c.937-.227 1.914-.35 2.92-.35zm-2.967.36c0 .003-.002.005-.002.005l-.038.006c.014-.003.026-.005.04-.01zm-2.318.826a74.16 74.16 0 0 1 4.6 7.134c-5.947 1.58-11.108 1.518-11.434 1.512a12.388 12.388 0 0 1 6.834-8.646zM5.29 22.775A12.336 12.336 0 0 1 2.116 14.5c0-.131.006-.26.01-.39.22.005 6.338.143 12.714-1.765.355.694.694 1.402 1.004 2.105a8.425 8.425 0 0 0-.488.15c-6.682 2.158-10.072 8.17-10.072 8.17l.005.006zm9.212 4.109a12.331 12.331 0 0 1-7.731-2.712c-.045-.035-.097-.075-.16-.127.063.052.115.092.16.127l.118.09s2.374-5.176 9.719-7.736c.027-.01.056-.017.083-.025 1.742 4.527 2.461 8.318 2.645 9.4-1.485.632-3.12.983-4.834.983zm6.92-2.114c-.127-.747-.787-4.382-2.412-8.844 3.999-.64 7.462.457 7.718.54a12.389 12.389 0 0 1-5.306 8.304zm-3.166-10.8c-.088-.21-.175-.424-.267-.637a36.94 36.94 0 0 0-.824-1.798c4.89-1.996 6.876-4.865 6.9-4.9a12.34 12.34 0 0 1 2.817 7.742c-.18-.04-4.37-.942-8.626-.407z" fill="#FFF" fill-rule="evenodd"/>
</svg>
