<svg width="39" height="44" viewBox="0 0 39 44" xmlns="http://www.w3.org/2000/svg">
    <g fill="none" fill-rule="evenodd">
        <path fill="#92A7F4" d="M3.475 38.945 0 0h38.264L34.78 38.931l-15.671 4.337z"/>
        <path fill="#424A78" d="m19.095 29.983-.027.013-5.324-1.436-.349-3.81H8.581l.67 7.49 9.817 2.719h.027zM19.738 22.352v-4.77h-5.894l.683-7.488 5.222-.143-.01-4.963h-9.534l-.362 3.513-1.12 12.568-.114 1.283h1.285z"/>
        <path fill="#424A78" d="M19.712 9.951h.013l5.236.308.437 4.936h4.814l-.837-9.232-9.65-.988-.013.014z"/>
        <path fill="#424A78" d="m29.722 9.965-.41-4.976H19.198v4.976zM19.082 17.582v4.782h5.894l-.554 6.183-5.34 1.45v4.962l9.817-2.719.078-.796 1.118-12.58.116-1.282h-1.285z"/>
    </g>
</svg>
