<svg width="22" height="23" viewBox="0 0 22 23" xmlns="http://www.w3.org/2000/svg">
    <path d="M18.029 5.262c-1.485 1.504-3.174 2.627-5.181 3.452.275.591.531 1.204.785 1.836 2.035-.316 4.183-.247 6.425-.013a9.067 9.067 0 0 0-2.029-5.275m-7.026-3.336c-.797 0-1.563.113-2.298.303 1.26 1.392 2.408 3.087 3.424 5.028 1.77-.731 3.386-1.738 4.8-3.114a8.998 8.998 0 0 0-5.926-2.217m-8.877 7.18c2.861-.126 5.653-.442 8.211-1.217-.975-1.745-2.12-3.383-3.427-4.981a9.106 9.106 0 0 0-4.784 6.197m-.203 1.917a9.08 9.08 0 0 0 2.17 5.9c2.304-3.386 4.9-5.153 7.736-5.975a40.247 40.247 0 0 0-.738-1.617c-2.53.763-5.525 1.163-9.152 1.326-.004.125-.016.244-.016.366m12.335 8.486c-.438-2.558-1.035-4.853-1.807-6.976-2.89.872-5.134 2.73-7.02 5.666a9.018 9.018 0 0 0 8.827 1.31m5.75-7.33c-2.163-.284-4.074-.306-5.781-.04a49.506 49.506 0 0 1 1.763 6.479 9.11 9.11 0 0 0 4.018-6.438m-9.005 9.865C4.928 22.044 0 17.11 0 11.022 0 4.937 4.928 0 11.003 0 17.075 0 22 4.937 22 11.022c0 6.088-4.925 11.022-10.997 11.022" fill="#97A1C7" fill-rule="evenodd"/>
</svg>
