<svg width="33" height="26" viewBox="0 0 33 26" xmlns="http://www.w3.org/2000/svg">
    <g fill="#92A7F4" fill-rule="evenodd">
        <path d="M24.396 21.902c-1.697 0-3.868-.756-4.92-1.387l-1.016 4.088c1.387.756 3.531 1.283 5.936 1.283 5.252 0 7.965-2.517 7.965-5.947-.04-2.7-1.503-4.472-5-5.666-2.245-.796-2.952-1.246-2.952-2.108 0-.937.782-1.503 2.17-1.503 1.579 0 3.147.605 3.983 1.056l1.013-3.947c-1.128-.566-3.043-1.052-5.19-1.052-4.545 0-7.475 2.594-7.475 6.012-.04 2.183 1.424 4.252 5.23 5.524 2.13.72 2.696 1.168 2.696 2.105 0 .941-.72 1.542-2.44 1.542zM5.667 16.456c.526.076 1.206.102 1.95.102 3.38 0 6.28-.822 8.221-2.657 1.517-1.427 2.339-3.535 2.339-6.011 0-2.48-1.08-4.588-2.71-5.861C13.783.668 11.267 0 7.732 0 4.239 0 1.759.23 0 .526v24.987h5.667v-9.057zm.01-11.908c.4-.115 1.196-.23 2.35-.23 2.865 0 4.473 1.384 4.486 3.71 0 2.598-1.89 4.137-4.933 4.137-.822 0-1.414-.036-1.904-.142V4.548z"/>
    </g>
</svg>
