<svg width="55" height="44" viewBox="0 0 55 44" xmlns="http://www.w3.org/2000/svg">
    <g fill-rule="nonzero" fill="none">
        <path d="m8.478 30.314-2.877 1.052-.153 8.558 9.96-3.638c-3.42-1.145-5.913-3.163-6.93-5.972" fill="#6C81CE"/>
        <path d="M9.984 21.262 0 24.91l5.601 6.458 2.877-1.051c-1.014-2.8-.388-5.96 1.506-9.055" fill="#92A7F4"/>
        <path d="M26.784 8.91C14.07 13.554 5.874 23.14 8.478 30.314l46.037-16.817C51.91 6.32 39.497 4.267 26.784 8.91" fill="#B8C5F3"/>
        <path d="M36.208 34.903C48.921 30.26 57.132 20.718 54.513 13.5L8.476 30.314c2.62 7.222 15.019 9.233 27.732 4.59" fill="#4358A3"/>
        <path d="M54.513 13.497 8.478 30.314c.9 2.487 4.34 3.712 9.162 3.712 4.703 0 10.723-1.164 16.998-3.456 12.713-4.643 21.655-12.164 19.875-17.073" fill="#6F87DD"/>
        <path d="M45.351 9.788c-4.7 0-10.722 1.163-16.997 3.455C15.64 17.887 6.698 25.406 8.478 30.314l46.037-16.817c-.902-2.486-4.34-3.71-9.164-3.71" fill="#92A7F4"/>
        <g fill="#5E77D1">
            <path d="M42.808 40.379c-1.355 0-3.353-1.223-5.94-3.636-3.06-2.855-6.563-7.037-9.87-11.774-3.304-4.737-6.02-9.472-7.646-13.337-1.771-4.21-2.025-6.796-.752-7.692a1.697 1.697 0 0 1 1-.295c1.036 0 3.056.77 6.788 4.445l.082.08-.011.114c-.025.265-.048.53-.069.793l-.04.519-.366-.368c-4.022-4.052-5.791-4.488-6.367-4.488-.165 0-.295.032-.389.098-.553.388-.59 2.29 1.13 6.369 1.597 3.794 4.273 8.458 7.534 13.134 3.263 4.678 6.714 8.796 9.722 11.6 3.24 3.023 4.7 3.35 5.178 3.35a.676.676 0 0 0 .398-.105c.582-.41.582-2.445-1.333-6.838l-.089-.2.192-.106c.192-.105.38-.208.553-.309l.231-.13.107.242c1.358 3.113 2.628 7.069.962 8.239a1.707 1.707 0 0 1-1.005.295zm.039-.48v.24-.24z"/>
            <path d="m36.517 34.77-.019.238c-.322 3.977-1.167 8.757-3.375 8.952-.046.004-.091.004-.135.004-1.5 0-2.918-2.148-4.214-6.382-1.23-4.009-2.182-9.388-2.683-15.15-.503-5.76-.496-11.225.02-15.386.563-4.534 1.632-6.902 3.182-7.04.045-.004.093-.006.14-.006 1.087 0 2.726 1.232 4.403 6.968l-1.095.21c-.56-1.915-1.17-3.474-1.775-4.548-.56-.99-1.106-1.535-1.534-1.535-.014 0-.027 0-.043.002-.672.06-1.65 1.686-2.194 6.083-.507 4.086-.514 9.47-.018 15.156.496 5.688 1.432 10.988 2.64 14.923.538 1.762 1.13 3.216 1.713 4.2.535.91 1.054 1.41 1.458 1.41.014 0 .028 0 .041-.002.642-.054 1.854-1.75 2.363-7.712l1.125-.384z"/>
        </g>
    </g>
</svg>
