<svg width="165" height="92" viewBox="0 0 165 92" fill="none" xmlns="http://www.w3.org/2000/svg">
<path d="M81.7176 0.418035C88.8178 0.329956 95.8394 1.91305 102.216 5.03965C102.326 5.09265 102.41 5.18766 102.45 5.30336C102.489 5.41905 102.48 5.54573 102.426 5.65496L102.24 6.00877C99.0827 11.8553 92.6432 15.1713 86.0304 14.3148C84.7728 14.1667 83.5076 14.0921 82.2413 14.0915C67.9144 14.0933 55.3486 23.6598 51.5233 37.4776L51.4395 37.7797C51.3831 37.986 51.3275 38.1977 51.2819 38.3891C51.2136 38.6763 51.1498 38.9634 51.0861 39.2505L51.0603 39.3399C51.0457 39.4087 51.0313 39.4775 51.0172 39.5464L51.0132 39.6015L50.8891 40.2305L50.781 40.8595L50.6944 41.4064C50.4752 42.9265 50.3641 44.4603 50.362 45.9961C50.3671 50.8473 51.4842 55.6327 53.6273 59.984C53.6987 60.1258 53.6912 60.2946 53.6076 60.4295C53.5239 60.5644 53.3761 60.646 53.2174 60.645C47.6386 60.6631 41.1261 57.3131 37.6193 50.0207C37.3054 49.3558 37.073 48.6578 36.9255 47.9421L36.7495 48.038C27.6866 53.1336 22.6087 58.0561 23.5879 61.7114C24.567 65.3668 31.4074 67.0896 41.8046 66.962L43.5235 66.9169C48.106 66.7667 52.6779 66.3772 57.2206 65.7496H57.2661C66.9492 64.4138 76.5322 62.4569 85.9621 59.8974C95.4265 57.3929 104.721 54.2842 113.788 50.5904C118.563 48.6506 123.22 46.4301 127.733 43.9405C136.796 38.8449 141.865 33.886 140.895 30.2671C139.925 26.6482 133.198 24.9162 122.96 25.012C122.789 25.0149 122.631 24.9216 122.55 24.7704C121.883 23.5003 121.157 22.2666 120.374 21.0695C120.305 20.9649 120.295 20.8326 120.347 20.7189C120.399 20.6053 120.505 20.526 120.629 20.5088C145.194 17.0267 162.514 18.0203 164.126 24.0366C165.747 30.103 151.01 39.7337 127.697 49.059C123.102 50.914 118.178 52.7417 112.978 54.5283C104.812 57.3359 95.9677 60.0433 86.6862 62.5318C77.4048 65.0204 68.4011 67.0988 59.9258 68.7578L59.9639 68.7503C72.2035 80.8207 91.8142 80.968 104.234 69.0814C109.167 64.4388 116.435 63.2873 122.56 66.1781C122.673 66.2301 122.76 66.3264 122.8 66.4444C122.841 66.5624 122.831 66.6918 122.774 66.8025C114.994 81.988 99.3894 91.5519 82.3377 91.5856C67.0187 91.6157 52.8374 83.9494 44.4293 71.4024C19.5566 74.9835 2.0053 74.0211 0.370596 67.9556C-1.26436 61.8892 13.4776 52.2585 36.8041 42.915C38.3844 19.4423 57.9538 0.686945 81.7176 0.418035Z" fill="white"/>
</svg>
