<svg width="401" height="70" viewBox="0 0 401 70" fill="none" xmlns="http://www.w3.org/2000/svg">
<path d="M6.18587 59.8944C6.18587 49.0366 6.18587 27.166 6.18587 15.7602L20.6102 45.1182L24.4951 41.1393L12.7847 17.3047C17.4327 22.065 23.7269 28.5134 30.2743 35.2192L33.954 31.4485L5.42614 2.22567C4.68057 1.46467 3.55823 1.23449 2.58185 1.645C1.6046 2.05454 0.967163 3.02635 0.967163 4.10292V66.3354H0.967535C0.967535 65.6576 1.22078 64.9792 1.72701 64.4633L6.18587 59.8944Z" fill="white"/>
<path d="M61.7231 59.8946L47.2993 45.1183L44.8337 50.1333C54.6807 60.219 62.4828 68.2109 62.4828 68.2109H62.4841C62.0145 67.7309 61.7231 67.0674 61.7231 66.3356C61.7231 66.3356 61.7231 63.8437 61.7231 59.8946Z" fill="white"/>
<path d="M43.414 41.1394L37.6346 35.2193C36.4139 36.4708 35.1843 37.729 33.954 38.9891C36.3091 41.4007 38.662 43.8116 40.95 46.1553L43.414 41.1394Z" fill="white"/>
<path d="M31.6216 65.1448L33.954 60.3944L26.9586 46.1554C25.6386 47.5086 24.3402 48.8387 23.0745 50.1335L31.622 67.5298H31.6247C31.2687 66.8047 31.2378 65.9253 31.6216 65.1448Z" fill="white"/>
<path d="M65.3265 1.64509C64.3502 1.23459 63.2279 1.46476 62.4828 2.22576L33.954 31.4486L30.2739 35.2193L24.4938 41.1394L20.6102 45.1183L6.18549 59.8945L1.72701 64.4634C1.22028 64.9793 0.967163 65.6577 0.967163 66.3356C0.967163 67.0188 1.2235 67.7032 1.73643 68.2211C2.75857 69.2576 4.41033 69.2513 5.42614 68.2109C5.42614 68.2109 13.2286 60.219 23.0742 50.1332C24.3402 48.8385 25.6379 47.5084 26.9587 46.1552C29.2467 43.8115 31.5998 41.4007 33.954 38.9891C35.1836 37.7289 36.4132 36.4708 37.6346 35.2193C44.181 28.5135 55.1242 17.3048 55.1242 17.3048L43.414 41.1394L40.95 46.1552L33.954 60.3942L31.6209 65.1446C31.237 65.925 31.2687 66.8045 31.6247 67.5296C31.8684 68.0229 32.2622 68.4464 32.7847 68.7126C34.0718 69.3713 35.6402 68.8408 36.2865 67.5296L44.8338 50.1332L47.2993 45.1183L61.7231 15.7603C61.7231 27.1661 61.7231 49.0367 61.7231 59.8945C61.7231 63.8437 61.7231 66.3356 61.7231 66.3356C61.7231 67.0674 62.0136 67.7309 62.4828 68.2109C62.9559 68.6947 63.6095 68.9947 64.3321 68.9947C65.7732 68.9947 66.9412 67.8039 66.9412 66.3356V4.10302C66.9412 3.02644 66.3046 2.05464 65.3265 1.64509Z" fill="white"/>
<path d="M122.224 40.8813L119.759 9.43647L107.273 41.0527H103.208L90.7211 9.43647L88.3159 40.8813H83.2756L86.4266 1.36294H93.0695L105.383 33.7793L117.698 1.36294H124.284L127.377 40.8813H122.224Z" fill="white"/>
<path d="M144.699 16.4795H144.583L139.887 29.0838H149.338C149.394 29.0838 144.699 16.4795 144.699 16.4795ZM135.533 40.8813H130.494L141.95 11.4995H147.675L159.274 40.8813H153.672L151.055 33.6044H138.226L135.533 40.8813Z" fill="white"/>
<path d="M172.257 16.3096H168.477V25.6474H172.257C175.98 25.6474 178.1 23.9279 178.1 20.8353C178.1 17.9151 176.038 16.3096 172.257 16.3096ZM179.769 40.8813L171.628 29.6549H168.477V40.8813H163.323V11.8405H172.315C178.959 11.8405 183.254 15.0499 183.254 20.7772C183.254 25.0724 180.848 27.765 177.182 29.0257L185.974 40.8813H179.769Z" fill="white"/>
<path d="M208.368 40.8813L195.947 26.7935V40.8813H190.793V11.8405H195.947V24.9013L207.402 11.8405H213.3L201.102 25.4724L214.685 40.8813H208.368Z" fill="white"/>
<path d="M218.59 40.8813V11.8405H236.631V16.3668H223.744V23.5241H234.799V28.0523H223.744V36.3569H237.032V40.8813H218.59Z" fill="white"/>
<path d="M274.96 41.3403C270.663 41.3403 266.826 40.3069 263.904 38.7606L264.709 33.2627C267.401 35.0384 271.123 36.6429 275.074 36.6429C279.255 36.6429 282.119 34.4672 282.119 30.8578C282.119 27.1357 280.457 25.4184 275.074 23.0659C267.343 19.6898 264.306 17.3976 264.306 11.0975C264.306 5.02504 269.175 0.8997 276.335 0.8997C280.17 0.8997 283.035 1.82167 285.324 3.13953L284.467 8.52082C282.289 6.85881 279.313 5.6 276.164 5.6C271.865 5.6 269.631 7.83411 269.631 10.6956C269.631 14.0183 271.296 15.6241 276.735 17.9687C284.582 21.3505 287.445 23.9847 287.445 30.4574C287.445 37.0433 282.408 41.3403 274.96 41.3403Z" fill="white"/>
<path d="M321.448 40.8816L319.673 17.3976L311.369 40.9946H306.211L297.908 17.3976L296.189 40.8816H291.496L293.784 11.8407H301.114L309.078 35.1568L317.152 11.8407H324.312L326.601 40.8816H321.448Z" fill="white"/>
<path d="M332.995 40.8813V11.8405H338.204V40.8813H332.995Z" fill="white"/>
<path d="M355.621 16.422V40.8813H350.408V16.422H342.202V11.8405H363.098L363.79 16.422H355.621Z" fill="white"/>
<path d="M253.422 16.422V40.8813H248.214V16.422H240V11.8405H260.905L261.592 16.422H253.422Z" fill="white"/>
<path d="M385.798 40.8813V28.1069H372.454V40.8813H367.298V11.8405H372.454V23.4133H385.798V11.8405H391.011V40.8813H385.798Z" fill="white"/>
<path d="M397.767 12.7117H397.291V13.7775H397.741C398.148 13.7775 398.399 13.6093 398.399 13.2451C398.399 12.8943 398.176 12.7117 397.767 12.7117ZM398.722 15.8113L397.643 14.2687H397.291V15.7548H396.687V12.1504H397.767C398.526 12.1504 399.03 12.5292 399.03 13.2023C399.03 13.721 398.751 14.0579 398.3 14.1979L399.354 15.6703L398.722 15.8113ZM397.795 11.1828C396.268 11.1828 395.062 12.2212 395.062 14.0715C395.062 15.9094 396.281 16.9466 397.783 16.9466C399.31 16.9466 400.516 15.9094 400.516 14.0715C400.516 12.2212 399.297 11.1828 397.795 11.1828ZM397.783 17.3257C395.903 17.3257 394.614 16.0212 394.614 14.0715C394.614 12.1368 395.932 10.804 397.795 10.804C399.662 10.804 400.967 12.1231 400.967 14.0715C400.967 16.0075 399.634 17.3257 397.783 17.3257Z" fill="white"/>
<path d="M84.9785 61.9923V67.453H88.0235C89.2017 67.453 90.0884 67.2251 90.6843 66.7688C91.2799 66.3133 91.5777 65.5996 91.5777 64.6274C91.5777 63.7226 91.2732 63.0569 90.6643 62.6308C90.0554 62.205 89.1283 61.9923 87.8838 61.9923H84.9785ZM84.9785 60.5545H87.774C88.9721 60.5545 89.8338 60.3665 90.3598 59.9906C90.8853 59.6145 91.1485 58.9804 91.1485 58.0886C91.1485 57.2702 90.8554 56.6794 90.2697 56.3168C89.6842 55.9539 88.7524 55.7726 87.4746 55.7726H84.9785V60.5545ZM83.2816 54.3052H87.4047C89.3414 54.3052 90.7424 54.5944 91.6075 55.1735C92.4727 55.7526 92.9054 56.6676 92.9054 57.9191C92.9054 58.7842 92.6641 59.4979 92.1815 60.0606C91.699 60.6227 90.9951 60.9872 90.0703 61.1536V61.2532C92.2866 61.6327 93.3946 62.7975 93.3946 64.7475C93.3946 66.052 92.9537 67.0704 92.072 67.8022C91.1897 68.5347 89.957 68.9004 88.3731 68.9004H83.2816V54.3052Z" fill="white"/>
<path d="M100.57 61.6028L104.464 54.3052H106.301L101.429 63.2401V68.9004H99.7119V63.3197L94.85 54.3052H96.7066L100.57 61.6028Z" fill="white"/>
<path d="M114.273 68.9004V54.3052H115.97V68.9004H114.273Z" fill="white"/>
<path d="M131.701 68.9004H129.765L121.788 56.6511H121.708C121.814 58.0886 121.868 59.4065 121.868 60.6044V68.9004H120.3V54.3052H122.217L130.174 66.5044H130.253C130.24 66.3247 130.21 65.7475 130.164 64.7723C130.117 63.7975 130.1 63.1004 130.114 62.681V54.3052H131.701V68.9004Z" fill="white"/>
<path d="M144.378 54.3052H146.205L140.943 68.9004H139.266L134.035 54.3052H135.832L139.186 63.7493C139.572 64.8342 139.879 65.8892 140.105 66.9139C140.345 65.8358 140.657 64.7608 141.043 63.6893L144.378 54.3052Z" fill="white"/>
<path d="M156.675 68.9004H148.538V54.3052H156.675V55.8126H150.236V60.5145H156.286V62.012H150.236V67.3832H156.675V68.9004Z" fill="white"/>
<path d="M168.473 65.017C168.473 66.3016 168.007 67.3032 167.075 68.022C166.143 68.7408 164.879 69.1001 163.282 69.1001C161.551 69.1001 160.22 68.8772 159.288 68.4315V66.7943C159.887 67.047 160.54 67.2467 161.245 67.393C161.95 67.5394 162.649 67.6128 163.342 67.6128C164.473 67.6128 165.325 67.3981 165.897 66.9686C166.469 66.5397 166.756 65.9422 166.756 65.1767C166.756 64.671 166.654 64.2567 166.451 63.9339C166.248 63.6113 165.909 63.3134 165.433 63.0404C164.957 62.7677 164.233 62.4578 163.262 62.1121C161.904 61.626 160.934 61.0505 160.352 60.3846C159.769 59.7193 159.478 58.8509 159.478 57.7791C159.478 56.6546 159.9 55.7593 160.746 55.0935C161.591 54.4282 162.709 54.0954 164.1 54.0954C165.551 54.0954 166.886 54.3614 168.103 54.8939L167.574 56.3714C166.37 55.866 165.198 55.613 164.06 55.613C163.162 55.613 162.459 55.806 161.954 56.1917C161.448 56.5781 161.195 57.1137 161.195 57.7994C161.195 58.3049 161.288 58.7195 161.475 59.0421C161.661 59.365 161.975 59.6611 162.418 59.9304C162.861 60.2002 163.538 60.4984 164.45 60.824C165.981 61.3702 167.034 61.9555 167.609 62.5809C168.185 63.2067 168.473 64.0186 168.473 65.017Z" fill="white"/>
<path d="M176.277 68.9004H174.58V55.8126H169.958V54.3052H180.9V55.8126H176.277V68.9004Z" fill="white"/>
<path d="M184.461 61.5829C184.461 63.5595 184.882 65.0589 185.724 66.0806C186.566 67.102 187.789 67.6128 189.393 67.6128C191.01 67.6128 192.232 67.1036 193.057 66.0854C193.882 65.0668 194.295 63.5665 194.295 61.5829C194.295 59.6196 193.884 58.1305 193.062 57.1152C192.24 56.1006 191.024 55.5927 189.413 55.5927C187.796 55.5927 186.566 56.1037 185.724 57.1254C184.882 58.147 184.461 59.6329 184.461 61.5829ZM196.092 61.5829C196.092 63.9188 195.501 65.7557 194.32 67.0936C193.138 68.4315 191.496 69.1001 189.393 69.1001C187.243 69.1001 185.585 68.4429 184.416 67.1282C183.248 65.8142 182.664 63.9589 182.664 61.5628C182.664 59.1868 183.25 57.3448 184.421 56.0371C185.593 54.7294 187.257 54.0753 189.413 54.0753C191.509 54.0753 193.147 54.7412 194.325 56.072C195.503 57.4032 196.092 59.2402 196.092 61.5829Z" fill="white"/>
<path d="M201.371 61.373H203.697C204.895 61.373 205.774 61.1351 206.333 60.6593C206.892 60.1833 207.171 59.4696 207.171 58.5178C207.171 57.5531 206.887 56.8575 206.318 56.4313C205.749 56.0056 204.835 55.7923 203.577 55.7923H201.371V61.373ZM201.371 62.8306V68.9004H199.674V54.3052H203.677C205.467 54.3052 206.79 54.6478 207.645 55.3332C208.501 56.0186 208.928 57.0504 208.928 58.428C208.928 60.3583 207.95 61.6625 205.993 62.3416L209.957 68.9004H207.95L204.416 62.8306H201.371Z" fill="white"/>
<path d="M213.718 54.3051L213.868 54.5245C213.694 55.1902 213.445 55.9635 213.119 56.8455C212.793 57.7275 212.453 58.5479 212.101 59.3066H210.883C211.348 57.4097 211.688 55.7423 211.901 54.3051H213.718Z" fill="white"/>
<path d="M224.677 65.017C224.677 66.3016 224.211 67.3032 223.279 68.022C222.348 68.7408 221.083 69.1001 219.485 69.1001C217.755 69.1001 216.424 68.8772 215.492 68.4315V66.7943C216.091 67.047 216.744 67.2467 217.449 67.393C218.155 67.5394 218.853 67.6128 219.546 67.6128C220.677 67.6128 221.529 67.3981 222.102 66.9686C222.674 66.5397 222.96 65.9422 222.96 65.1767C222.96 64.671 222.858 64.2567 222.656 63.9339C222.452 63.6113 222.113 63.3134 221.637 63.0404C221.161 62.7677 220.437 62.4578 219.466 62.1121C218.108 61.626 217.138 61.0505 216.556 60.3846C215.973 59.7193 215.682 58.8509 215.682 57.7791C215.682 56.6546 216.105 55.7593 216.95 55.0935C217.795 54.4282 218.913 54.0954 220.304 54.0954C221.755 54.0954 223.09 54.3614 224.308 54.8939L223.778 56.3714C222.574 55.866 221.402 55.613 220.264 55.613C219.366 55.613 218.664 55.806 218.158 56.1917C217.652 56.5781 217.399 57.1137 217.399 57.7994C217.399 58.3049 217.492 58.7195 217.679 59.0421C217.865 59.365 218.179 59.6611 218.622 59.9304C219.065 60.2002 219.742 60.4984 220.654 60.824C222.184 61.3702 223.238 61.9555 223.813 62.5809C224.389 63.2067 224.677 64.0186 224.677 65.017Z" fill="white"/>
<path d="M235.325 61.9923V67.453H238.37C239.548 67.453 240.434 67.2251 241.03 66.7688C241.626 66.3133 241.924 65.5996 241.924 64.6274C241.924 63.7226 241.619 63.0569 241.01 62.6308C240.401 62.205 239.474 61.9923 238.23 61.9923H235.325ZM235.325 60.5545H238.12C239.318 60.5545 240.18 60.3665 240.706 59.9906C241.231 59.6145 241.494 58.9804 241.494 58.0886C241.494 57.2702 241.201 56.6794 240.616 56.3168C240.03 55.9539 239.098 55.7726 237.82 55.7726H235.325V60.5545ZM233.627 54.3052H237.751C239.687 54.3052 241.088 54.5944 241.954 55.1735C242.819 55.7526 243.251 56.6676 243.251 57.9191C243.251 58.7842 243.01 59.4979 242.528 60.0606C242.045 60.6227 241.341 60.9872 240.416 61.1536V61.2532C242.633 61.6327 243.741 62.7975 243.741 64.7475C243.741 66.052 243.3 67.0704 242.418 67.8022C241.536 68.5347 240.303 68.9004 238.719 68.9004H233.627V54.3052Z" fill="white"/>
<path d="M258.224 54.3052V63.7493C258.224 65.4132 257.722 66.721 256.717 67.6724C255.712 68.6242 254.331 69.1001 252.574 69.1001C250.816 69.1001 249.457 68.6208 248.495 67.6626C247.534 66.7041 247.053 65.3866 247.053 63.7094V54.3052H248.75V63.8291C248.75 65.0471 249.083 65.9822 249.748 66.6345C250.413 67.2867 251.392 67.6128 252.683 67.6128C253.915 67.6128 254.863 67.2848 255.529 66.6292C256.194 65.9739 256.527 65.0339 256.527 63.809V54.3052H258.224Z" fill="white"/>
<path d="M270.651 65.017C270.651 66.3016 270.185 67.3032 269.253 68.022C268.321 68.7408 267.057 69.1001 265.46 69.1001C263.729 69.1001 262.398 68.8772 261.466 68.4315V66.7943C262.065 67.047 262.717 67.2467 263.423 67.393C264.128 67.5394 264.827 67.6128 265.519 67.6128C266.651 67.6128 267.503 67.3981 268.075 66.9686C268.647 66.5397 268.934 65.9422 268.934 65.1767C268.934 64.671 268.832 64.2567 268.629 63.9339C268.426 63.6113 268.087 63.3134 267.611 63.0404C267.135 62.7677 266.411 62.4578 265.439 62.1121C264.082 61.626 263.111 61.0505 262.529 60.3846C261.947 59.7193 261.656 58.8509 261.656 57.7791C261.656 56.6546 262.079 55.7593 262.924 55.0935C263.769 54.4282 264.887 54.0954 266.278 54.0954C267.729 54.0954 269.064 54.3614 270.281 54.8939L269.752 56.3714C268.548 55.866 267.376 55.613 266.238 55.613C265.34 55.613 264.637 55.806 264.132 56.1917C263.626 56.5781 263.373 57.1137 263.373 57.7994C263.373 58.3049 263.466 58.7195 263.653 59.0421C263.838 59.365 264.153 59.6611 264.596 59.9304C265.039 60.2002 265.716 60.4984 266.628 60.824C268.158 61.3702 269.211 61.9555 269.787 62.5809C270.363 63.2067 270.651 64.0186 270.651 65.017Z" fill="white"/>
<path d="M273.963 68.9004V54.3052H275.66V68.9004H273.963Z" fill="white"/>
<path d="M291.392 68.9004H289.455L281.478 56.6511H281.398C281.505 58.0886 281.558 59.4065 281.558 60.6044V68.9004H279.99V54.3052H281.908L289.864 66.5044H289.944C289.93 66.3247 289.9 65.7475 289.854 64.7723C289.807 63.7975 289.791 63.1004 289.804 62.681V54.3052H291.392V68.9004Z" fill="white"/>
<path d="M303.868 68.9004H295.732V54.3052H303.868V55.8126H297.429V60.5145H303.478V62.012H297.429V67.3832H303.868V68.9004Z" fill="white"/>
<path d="M315.666 65.017C315.666 66.3016 315.2 67.3032 314.268 68.022C313.337 68.7408 312.072 69.1001 310.475 69.1001C308.744 69.1001 307.413 68.8772 306.481 68.4315V66.7943C307.081 67.047 307.733 67.2467 308.438 67.393C309.144 67.5394 309.843 67.6128 310.535 67.6128C311.666 67.6128 312.518 67.3981 313.09 66.9686C313.663 66.5397 313.949 65.9422 313.949 65.1767C313.949 64.671 313.847 64.2567 313.644 63.9339C313.442 63.6113 313.102 63.3134 312.626 63.0404C312.15 62.7677 311.427 62.4578 310.455 62.1121C309.097 61.626 308.127 61.0505 307.545 60.3846C306.962 59.7193 306.671 58.8509 306.671 57.7791C306.671 56.6546 307.094 55.7593 307.939 55.0935C308.784 54.4282 309.902 54.0954 311.294 54.0954C312.744 54.0954 314.079 54.3614 315.297 54.8939L314.768 56.3714C313.563 55.866 312.392 55.613 311.254 55.613C310.355 55.613 309.653 55.806 309.147 56.1917C308.641 56.5781 308.388 57.1137 308.388 57.7994C308.388 58.3049 308.482 58.7195 308.668 59.0421C308.854 59.365 309.169 59.6611 309.611 59.9304C310.054 60.2002 310.731 60.4984 311.643 60.824C313.174 61.3702 314.227 61.9555 314.803 62.5809C315.378 63.2067 315.666 64.0186 315.666 65.017Z" fill="white"/>
<path d="M327.213 65.017C327.213 66.3016 326.75 67.3032 325.816 68.022C324.886 68.7408 323.619 69.1001 322.022 69.1001C320.292 69.1001 318.962 68.8772 318.03 68.4315V66.7943C318.629 67.047 319.283 67.2467 319.987 67.393C320.692 67.5394 321.391 67.6128 322.083 67.6128C323.213 67.6128 324.067 67.3981 324.638 66.9686C325.21 66.5397 325.499 65.9422 325.499 65.1767C325.499 64.671 325.397 64.2567 325.194 63.9339C324.991 63.6113 324.651 63.3134 324.175 63.0404C323.699 62.7677 322.975 62.4578 322.003 62.1121C320.645 61.626 319.676 61.0505 319.092 60.3846C318.511 59.7193 318.22 58.8509 318.22 57.7791C318.22 56.6546 318.641 55.7593 319.486 55.0935C320.333 54.4282 321.451 54.0954 322.842 54.0954C324.292 54.0954 325.626 54.3614 326.845 54.8939L326.315 56.3714C325.112 55.866 323.94 55.613 322.803 55.613C321.905 55.613 321.2 55.806 320.695 56.1917C320.191 56.5781 319.937 57.1137 319.937 57.7994C319.937 58.3049 320.029 58.7195 320.216 59.0421C320.403 59.365 320.718 59.6611 321.159 59.9304C321.603 60.2002 322.28 60.4984 323.191 60.824C324.721 61.3702 325.775 61.9555 326.35 62.5809C326.928 63.2067 327.213 64.0186 327.213 65.017Z" fill="white"/>
<path d="M346.018 61.5228C346.018 59.6195 345.541 58.1852 344.586 57.22C343.63 56.2551 342.211 55.7726 340.328 55.7726H337.862V67.433H339.928C341.951 67.433 343.471 66.9355 344.491 65.9405C345.51 64.9455 346.018 63.4731 346.018 61.5228ZM347.815 61.4632C347.815 63.8722 347.161 65.7142 345.853 66.9888C344.545 68.2636 342.665 68.9004 340.208 68.9004H336.166V54.3052H340.636C342.906 54.3052 344.672 54.9338 345.929 56.1916C347.186 57.4499 347.815 59.2068 347.815 61.4632Z" fill="white"/>
<path d="M358.225 62.7308L356.529 58.2086C356.31 57.6361 356.082 56.934 355.85 56.1021C355.704 56.7409 355.494 57.4428 355.221 58.2086L353.504 62.7308H358.225ZM360.571 68.9004L358.755 64.2582H352.904L351.107 68.9004H349.389L355.161 54.2448H356.59L362.33 68.9004H360.571Z" fill="white"/>
<path d="M364.663 68.9004V54.3052H366.359V68.9004H364.663Z" fill="white"/>
<path d="M370.689 68.9004V54.3052H372.387V67.3632H378.826V68.9004H370.689Z" fill="white"/>
<path d="M385.344 61.6028L389.236 54.3052H391.074L386.201 63.2401V68.9004H384.484V63.3197L379.623 54.3052H381.48L385.344 61.6028Z" fill="white"/>
</svg>
