<svg version="1.2" xmlns="http://www.w3.org/2000/svg" viewBox="0 0 40 54" width="40" height="54">
	<title>market-smith-svg</title>
	<style>
		.s0 { fill: #fffffe } 
	</style>
	<path id="Layer" fill-rule="evenodd" class="s0" d="m33.8 42.4l-0.6-0.7-0.4-0.4-0.5-0.4-1.9-1.9-2.7-2.7-0.2-0.3-0.9-0.9-5.2 10.3q-0.2 0.4-0.5 0.7-0.4 0.2-0.8 0.2-0.5 0-0.8-0.2-0.4-0.2-0.6-0.5l-0.1-0.2-5.2-10.3-0.6 0.6-0.1 0.2-2.3 2.3-0.6 0.5-1.1 1.1-0.6 0.6-0.6 0.7-0.7 0.6-0.3 0.4-1.6 1.5-1.5 1.6-0.3 0.3-0.2 0.1-0.2 0.2q-0.2 0.3-0.5 0.4-0.3 0.1-0.6 0.1-0.3 0-0.6-0.1-0.3-0.1-0.5-0.3-0.1-0.1-0.2-0.3-0.1-0.1-0.1-0.2-0.1-0.1-0.1-0.2-0.1-0.2-0.1-0.3v-0.2-36.8q0-0.3 0.1-0.6 0.1-0.3 0.4-0.5 0.2-0.2 0.5-0.4 0.3-0.1 0.6-0.1c0.4 0 0.8 0.2 1.1 0.5l17.3 17.3-0.7 0.6 18-17.9q0.2-0.2 0.3-0.3 0.2-0.1 0.4-0.1 0.2-0.1 0.5-0.1 0.2 0 0.4 0.1h0.1c0.6 0.3 0.9 0.8 1 1.3v0.2 36.8q0 0.5-0.3 0.9-0.2 0.4-0.7 0.6-0.4 0.2-0.9 0.1-0.5-0.1-0.8-0.5zm-30.6-27.5v26.1l8.7-8.7zm0 26.1l-0.8 0.8 0.8-0.8zm16.8-12.4l-0.5 0.6-2.7 2.6-1 1.1 4.2 8.4 4.3-8.4-1.1-1.1-2.1-2.1c0 0-1.1-1.1-1.1-1.1zm16.9-13.7l-9.1 18 0.3-0.6 8.8 8.7c0 0 0-26.1 0-26.1zm-22.2 8.4l-5.9-6-1.2-1.1-0.4-0.4 7.1 14.1 3.5-3.5c0 0-3.1-3.1-3.1-3.1zm-0.4 6.6l-1.9 1.9 1.9-1.9zm18.6-14.1l-0.4 0.4-0.2 0.2-1.2 1.2-0.4 0.3-0.9 1-0.1 0.1-2.5 2.5-1 0.9-3.5 3.6-0.2 0.2-0.2 0.2 3.5 3.5z"/>
</svg>