<svg version="1.2" xmlns="http://www.w3.org/2000/svg" viewBox="0 0 196 54" width="196" height="54">
	<title>oracle-svg</title>
	<style>
		.s0 { fill: #fffffe } 
	</style>
	<path id="Layer" fill-rule="evenodd" class="s0" d="m178.9 35h17.1l-2.7 4.4h-14.7c-6.8 0-12.4-5.6-12.4-12.5 0-7 5.6-12.6 12.4-12.6h17l-2.7 4.4h-14c-3.6 0-6.7 2.5-7.7 6h23.1l-2.8 4.4h-20.3c1 3.4 4.1 5.9 7.7 5.9zm-45.2 4.4c0 0-14.7 0-14.7 0-6.8 0-12.4-5.6-12.4-12.5 0-7 5.6-12.6 12.4-12.6h17.1l-2.8 4.4h-14c-4.4 0-8 3.7-8 8.2 0 4.4 3.6 8.1 8 8.1h17.1zm-120.7 0c-7.1 0-12.9-5.6-12.9-12.5 0-7 5.8-12.6 12.9-12.6h15c7.1 0 12.9 5.6 12.9 12.6 0 6.9-5.8 12.5-12.9 12.5zm13.5-4.7c4.5 0 8.1-3.5 8.1-7.9 0-4.3-3.6-7.8-8.1-7.8h-13.7c-4.4 0-8 3.5-8 7.8 0 4.4 3.6 7.9 8 7.9zm37.1-3.4h-2.2l9.8 8.1h-7.1l-14.5-12.6 13.7 0.1q0.8-0.1 1.6-0.4 0.7-0.3 1.3-0.8 0.6-0.6 0.9-1.4 0.3-0.7 0.3-1.5c0-2.3-1.8-4.1-4.1-4.1h-16.1v20.7h-4.8v-25.1h21.2c4.8 0 8.6 3.8 8.6 8.5 0 4.7-3.8 8.5-8.6 8.5zm81 3.7h23.2l-2.9 4.4h-22.7q-0.3 0-0.5-0.1-0.3 0-0.5-0.1-0.3-0.1-0.5-0.2-0.2-0.2-0.4-0.3c-0.4-0.5-0.7-1.1-0.7-1.7v-22.7h5zm-46.1-4.3l-6.7-10.9-12.4 19.6h-5.7l15.1-23.5c0.6-1 1.8-1.6 3-1.6 1.1 0 2.2 0.6 2.9 1.5l15.1 23.6h-5.6l-2.7-4.4h-12.9l-2.9-4.3c0 0 12.8 0 12.8 0z"/>
</svg>